<?xml version="1.0" encoding="UTF-8"?>
<!DOCTYPE svg PUBLIC "-//W3C//DTD SVG 1.1//EN" "http://www.w3.org/Graphics/SVG/1.1/DTD/svg11.dtd">
<svg xmlns="http://www.w3.org/2000/svg" version="1.1" width="500px" height="500px" style="shape-rendering:geometricPrecision; text-rendering:geometricPrecision; image-rendering:optimizeQuality; fill-rule:evenodd; clip-rule:evenodd" xmlns:xlink="http://www.w3.org/1999/xlink">
<g><path style="opacity:0.942" fill="#f8b936" d="M 71.5,222.5 C 86.5037,222.333 101.504,222.5 116.5,223C 123.429,227.243 124.429,232.743 119.5,239.5C 110.853,240.665 102.186,240.832 93.5,240C 98.8574,231.182 96.5241,228.348 86.5,231.5C 81.3497,242.469 76.183,253.469 71,264.5C 70.5065,266.134 70.3398,267.801 70.5,269.5C 73.8499,269.665 77.1832,269.498 80.5,269C 82.3557,264.788 84.3557,260.621 86.5,256.5C 94.8134,255.335 103.147,255.168 111.5,256C 108.811,261.879 105.977,267.712 103,273.5C 101.065,275.102 98.8987,276.269 96.5,277C 81.1667,277.667 65.8333,277.667 50.5,277C 45.7059,275.133 44.2059,271.633 46,266.5C 51.7263,253.38 57.7263,240.38 64,227.5C 66.1699,225.177 68.6699,223.51 71.5,222.5 Z"/></g>
<g><path style="opacity:0.947" fill="#f8b936" d="M 140.5,222.5 C 153.837,222.333 167.171,222.5 180.5,223C 185.617,224.732 187.45,228.232 186,233.5C 181,245.5 176,257.5 171,269.5C 169.01,273.49 165.843,275.99 161.5,277C 145.833,277.667 130.167,277.667 114.5,277C 112.274,275.38 110.94,273.214 110.5,270.5C 113.11,261.827 116.777,253.66 121.5,246C 134.099,244.252 146.766,242.752 159.5,241.5C 161.522,238.103 162.522,234.436 162.5,230.5C 159.15,230.335 155.817,230.502 152.5,231C 150.833,234 149.167,237 147.5,240C 140.144,240.831 132.811,240.665 125.5,239.5C 127.412,230.931 132.412,225.265 140.5,222.5 Z M 148.5,250.5 C 150.857,250.337 153.19,250.503 155.5,251C 152.811,256.063 150.311,261.229 148,266.5C 144.083,270.472 140.25,270.472 136.5,266.5C 138.333,262.167 140.167,257.833 142,253.5C 144.045,252.074 146.212,251.074 148.5,250.5 Z"/></g>
<g><path style="opacity:0.951" fill="#f8b936" d="M 197.5,222.5 C 205.5,222.5 213.5,222.5 221.5,222.5C 221.5,223.5 221.5,224.5 221.5,225.5C 229.659,222.962 237.992,222.129 246.5,223C 252.233,225.248 254.067,229.414 252,235.5C 246.167,249.167 240.333,262.833 234.5,276.5C 226.5,277.833 218.5,277.833 210.5,276.5C 215.725,263.717 221.225,251.05 227,238.5C 228.1,234.265 226.433,232.599 222,233.5C 219.648,233.305 217.648,233.972 216,235.5C 210.218,249.517 204.051,263.351 197.5,277C 189.5,277.667 181.5,277.667 173.5,277C 181.369,258.764 189.369,240.597 197.5,222.5 Z"/></g>
<g><path style="opacity:0.946" fill="#f8b936" d="M 306.5,222.5 C 319.837,222.333 333.171,222.5 346.5,223C 351.458,224.938 353.291,228.438 352,233.5C 346.667,246.167 341.333,258.833 336,271.5C 333.9,274.467 331.066,276.3 327.5,277C 311.833,277.667 296.167,277.667 280.5,277C 278.289,275.418 276.955,273.251 276.5,270.5C 279.118,261.792 282.785,253.626 287.5,246C 300.099,244.252 312.766,242.752 325.5,241.5C 327.391,238.058 328.391,234.391 328.5,230.5C 325.15,230.335 321.817,230.502 318.5,231C 316.833,234 315.167,237 313.5,240C 306.144,240.831 298.811,240.665 291.5,239.5C 293.412,230.931 298.412,225.265 306.5,222.5 Z M 314.5,250.5 C 316.5,250.5 318.5,250.5 320.5,250.5C 318.629,255.915 316.462,261.248 314,266.5C 310.083,270.472 306.25,270.472 302.5,266.5C 304.236,262.126 306.069,257.793 308,253.5C 310.045,252.074 312.212,251.074 314.5,250.5 Z"/></g>
<g><path style="opacity:0.953" fill="#f8b936" d="M 363.5,222.5 C 371.5,222.5 379.5,222.5 387.5,222.5C 387.5,223.5 387.5,224.5 387.5,225.5C 395.687,223.162 404.02,222.329 412.5,223C 415.018,224.199 417.518,225.365 420,226.5C 427.258,224.685 434.591,223.351 442,222.5C 451.991,221.487 455.991,225.82 454,235.5C 448.167,249.167 442.333,262.833 436.5,276.5C 428.5,277.833 420.5,277.833 412.5,276.5C 417.903,263.792 423.403,251.125 429,238.5C 429.494,236.866 429.66,235.199 429.5,233.5C 426.15,233.335 422.817,233.502 419.5,234C 412.78,247.944 406.447,262.11 400.5,276.5C 392.5,277.833 384.5,277.833 376.5,276.5C 381.903,263.792 387.403,251.125 393,238.5C 393.494,236.866 393.66,235.199 393.5,233.5C 389.894,233.211 386.394,233.544 383,234.5C 376.496,248.684 369.996,262.851 363.5,277C 355.5,277.667 347.5,277.667 339.5,277C 347.6,258.863 355.6,240.696 363.5,222.5 Z"/></g>
<g><path style="opacity:0.869" fill="#f8b936" d="M 252.5,247.5 C 261.167,247.5 269.833,247.5 278.5,247.5C 277.699,251.235 276.699,254.901 275.5,258.5C 266.494,258.666 257.494,258.5 248.5,258C 250.26,254.649 251.594,251.149 252.5,247.5 Z"/></g>
<g><path style="opacity:0.547" fill="#f8b936" d="M 440.5,271.5 C 443.681,271.742 446.681,271.742 449.5,271.5C 450.231,273.401 450.231,275.401 449.5,277.5C 446.921,277.917 444.754,277.25 443,275.5C 442.692,276.308 442.192,276.975 441.5,277.5C 441.684,275.585 441.35,273.585 440.5,271.5 Z"/></g>
</svg>
