<?xml version="1.0" encoding="UTF-8"?>
<!DOCTYPE svg PUBLIC "-//W3C//DTD SVG 1.1//EN" "http://www.w3.org/Graphics/SVG/1.1/DTD/svg11.dtd">
<svg xmlns="http://www.w3.org/2000/svg" version="1.1" width="1280px" height="790px" style="shape-rendering:geometricPrecision; text-rendering:geometricPrecision; image-rendering:optimizeQuality; fill-rule:evenodd; clip-rule:evenodd" xmlns:xlink="http://www.w3.org/1999/xlink">
<g><path style="opacity:1" fill="#96a4dd" d="M 913.5,455.5 C 913.5,318.833 913.5,182.167 913.5,45.5C 913.5,45.1667 913.5,44.8333 913.5,44.5C 913.5,43.5 913.5,42.5 913.5,41.5C 734.5,41.5 555.5,41.5 376.5,41.5C 374.167,41.5 371.833,41.5 369.5,41.5C 369.5,41.1667 369.5,40.8333 369.5,40.5C 550.666,39.3338 732,39.1671 913.5,40C 914,40.5 914.5,41 915,41.5C 915.667,174.833 915.667,308.167 915,441.5C 914.826,446.351 914.326,451.018 913.5,455.5 Z"/></g>
<g><path style="opacity:1" fill="#2c43a0" d="M 369.5,41.5 C 371.833,41.5 374.167,41.5 376.5,41.5C 379.228,42.2052 382.061,42.8719 385,43.5C 560.582,42.5088 736.082,42.1755 911.5,42.5C 910.52,179.797 910.186,316.797 910.5,453.5C 910.719,454.938 911.219,456.271 912,457.5C 912.167,319.999 912.667,182.666 913.5,45.5C 913.5,182.167 913.5,318.833 913.5,455.5C 913.5,457.5 913.5,459.5 913.5,461.5C 911.852,466.921 910.852,472.588 910.5,478.5C 909.74,484.489 909.073,490.489 908.5,496.5C 908.371,498.216 908.038,499.883 907.5,501.5C 906.883,501.611 906.383,501.944 906,502.5C 905.172,506.466 904.672,510.466 904.5,514.5C 903.069,515.78 902.402,517.447 902.5,519.5C 902.5,520.167 902.5,520.833 902.5,521.5C 901.883,521.611 901.383,521.944 901,522.5C 899.985,526.895 898.818,531.229 897.5,535.5C 897.405,537.786 896.738,539.786 895.5,541.5C 894.076,543.515 893.41,545.848 893.5,548.5C 892.157,551.543 890.823,554.543 889.5,557.5C 888.326,558.514 887.66,559.847 887.5,561.5C 886.535,566.098 884.535,570.098 881.5,573.5C 879.707,575.426 878.707,577.759 878.5,580.5C 877.529,582.483 876.529,584.483 875.5,586.5C 873.952,586.821 873.285,587.821 873.5,589.5C 873.573,591.027 872.906,592.027 871.5,592.5C 869.412,594.336 868.079,596.669 867.5,599.5C 863.55,606.113 859.217,612.446 854.5,618.5C 853.094,618.973 852.427,619.973 852.5,621.5C 851.299,623.909 849.633,625.909 847.5,627.5C 846.094,627.973 845.427,628.973 845.5,630.5C 845.167,631.5 844.5,632.167 843.5,632.5C 842.094,632.973 841.427,633.973 841.5,635.5C 840.833,636.833 839.833,637.833 838.5,638.5C 837.094,638.973 836.427,639.973 836.5,641.5C 834.194,644.473 831.527,647.14 828.5,649.5C 824.5,652.833 820.833,656.5 817.5,660.5C 814.789,664.212 811.456,667.212 807.5,669.5C 806.5,669.833 805.833,670.5 805.5,671.5C 801.903,670.731 799.903,672.398 799.5,676.5C 797.973,676.427 796.973,677.094 796.5,678.5C 796.167,679.5 795.5,680.167 794.5,680.5C 792.973,680.427 791.973,681.094 791.5,682.5C 791.167,683.5 790.5,684.167 789.5,684.5C 787.973,684.427 786.973,685.094 786.5,686.5C 786.5,687.167 786.167,687.5 785.5,687.5C 783.821,687.285 782.821,687.952 782.5,689.5C 781.778,690.551 780.778,691.218 779.5,691.5C 777.533,691.739 775.699,691.406 774,690.5C 773.506,692.134 773.34,693.801 773.5,695.5C 771.973,695.427 770.973,696.094 770.5,697.5C 768.821,697.285 767.821,697.952 767.5,699.5C 766.833,699.833 766.167,700.167 765.5,700.5C 762.669,701.079 760.336,702.412 758.5,704.5C 757.71,705.401 756.71,706.068 755.5,706.5C 752.911,706.461 750.911,707.461 749.5,709.5C 747.819,711.008 745.819,712.008 743.5,712.5C 740.006,712.532 737.339,713.865 735.5,716.5C 733.447,716.402 731.78,717.069 730.5,718.5C 728.061,719.053 725.727,719.053 723.5,718.5C 722.614,719.325 722.281,720.325 722.5,721.5C 720.847,721.66 719.514,722.326 718.5,723.5C 716.064,724.871 713.397,725.871 710.5,726.5C 708.214,726.595 706.214,727.262 704.5,728.5C 702.102,728.259 700.102,728.926 698.5,730.5C 698.167,730.5 697.833,730.5 697.5,730.5C 693.779,730.521 690.446,731.521 687.5,733.5C 684.505,733.294 681.838,733.96 679.5,735.5C 677.621,736.341 675.621,736.675 673.5,736.5C 665.982,737.516 658.648,738.849 651.5,740.5C 651.167,740.5 650.833,740.5 650.5,740.5C 644.5,740.5 638.5,740.5 632.5,740.5C 627.731,739.111 622.731,738.444 617.5,738.5C 615.343,737.593 613.01,736.927 610.5,736.5C 609.5,736.5 608.5,736.5 607.5,736.5C 607.389,735.883 607.056,735.383 606.5,735C 604.527,734.505 602.527,734.338 600.5,734.5C 597.063,733.055 593.397,732.055 589.5,731.5C 586.933,731.279 584.599,730.612 582.5,729.5C 580.485,728.076 578.152,727.41 575.5,727.5C 573.815,725.182 571.481,724.182 568.5,724.5C 567.209,724.737 566.209,724.404 565.5,723.5C 563.786,722.262 561.786,721.595 559.5,721.5C 558.833,721.167 558.167,720.833 557.5,720.5C 555.68,718.552 553.346,717.552 550.5,717.5C 547.515,716.674 544.849,715.341 542.5,713.5C 541.22,712.069 539.553,711.402 537.5,711.5C 535.632,710.737 533.965,709.737 532.5,708.5C 531.486,707.326 530.153,706.66 528.5,706.5C 527.71,705.599 526.71,704.932 525.5,704.5C 522.043,703.606 519.043,701.94 516.5,699.5C 516.027,698.094 515.027,697.427 513.5,697.5C 511.147,696.66 509.147,695.326 507.5,693.5C 505.049,690.723 502.049,688.723 498.5,687.5C 498.027,686.094 497.027,685.427 495.5,685.5C 493.611,684.396 491.945,683.063 490.5,681.5C 489.415,679.413 487.749,678.08 485.5,677.5C 484.415,675.413 482.749,674.08 480.5,673.5C 480.027,672.094 479.027,671.427 477.5,671.5C 475.833,670.5 474.5,669.167 473.5,667.5C 470.919,664.312 467.919,661.645 464.5,659.5C 459.5,655.167 454.833,650.5 450.5,645.5C 450.5,643.5 449.5,642.5 447.5,642.5C 443.731,639.066 440.731,635.066 438.5,630.5C 438.167,629.5 437.5,628.833 436.5,628.5C 435.167,627.167 433.833,625.833 432.5,624.5C 431.167,622.5 429.833,620.5 428.5,618.5C 428.573,616.973 427.906,615.973 426.5,615.5C 426.446,613.368 425.446,612.035 423.5,611.5C 423.5,611.167 423.5,610.833 423.5,610.5C 422.974,608.77 421.974,607.436 420.5,606.5C 418.782,604.777 417.449,602.777 416.5,600.5C 415.921,597.669 414.588,595.336 412.5,593.5C 410.012,590.534 408.012,587.201 406.5,583.5C 406.672,582.508 406.338,581.842 405.5,581.5C 403.929,579.365 402.596,577.032 401.5,574.5C 401.598,572.447 400.931,570.78 399.5,569.5C 399.771,567.62 399.104,566.287 397.5,565.5C 395.707,563.574 394.707,561.241 394.5,558.5C 394.448,555.654 393.448,553.32 391.5,551.5C 390.662,551.158 390.328,550.492 390.5,549.5C 390.472,546.084 389.472,543.084 387.5,540.5C 386.596,539.791 386.263,538.791 386.5,537.5C 386.204,535.597 385.537,533.93 384.5,532.5C 382.899,529.45 381.899,526.116 381.5,522.5C 380.576,516.171 378.91,510.171 376.5,504.5C 376.5,503.833 376.5,503.167 376.5,502.5C 375.472,495.317 374.139,488.317 372.5,481.5C 371.527,479.052 371.194,476.385 371.5,473.5C 371.784,471.585 371.451,469.919 370.5,468.5C 370.5,468.167 370.5,467.833 370.5,467.5C 369.523,325.507 369.189,183.507 369.5,41.5 Z M 894.5,457.5 C 893.57,461.4 893.237,465.4 893.5,469.5C 891.476,478.637 889.809,487.971 888.5,497.5C 888.371,499.216 888.038,500.883 887.5,502.5C 886.087,505.219 885.42,508.219 885.5,511.5C 884.21,514.642 883.21,517.975 882.5,521.5C 881.076,523.515 880.41,525.848 880.5,528.5C 879.129,530.936 878.129,533.603 877.5,536.5C 876.596,537.209 876.263,538.209 876.5,539.5C 874.733,541.792 873.733,544.458 873.5,547.5C 872.088,549.604 871.088,551.937 870.5,554.5C 868.842,557.789 867.175,561.123 865.5,564.5C 864.069,565.78 863.402,567.447 863.5,569.5C 859.251,576.329 855.251,583.329 851.5,590.5C 849.178,591.802 847.845,593.802 847.5,596.5C 846.599,597.29 845.932,598.29 845.5,599.5C 844.094,599.973 843.427,600.973 843.5,602.5C 841.738,603.262 840.738,604.596 840.5,606.5C 838.738,607.262 837.738,608.596 837.5,610.5C 836.599,611.29 835.932,612.29 835.5,613.5C 833.738,614.262 832.738,615.596 832.5,617.5C 831.5,617.833 830.833,618.5 830.5,619.5C 828.738,620.262 827.738,621.596 827.5,623.5C 826.167,624.167 825.167,625.167 824.5,626.5C 821.119,628.88 818.453,631.88 816.5,635.5C 814.167,637.167 812.167,639.167 810.5,641.5C 807.452,643.882 804.785,646.548 802.5,649.5C 800.251,650.08 798.585,651.413 797.5,653.5C 796.167,654.167 795.167,655.167 794.5,656.5C 791.911,657.419 789.911,659.086 788.5,661.5C 786.251,662.08 784.585,663.413 783.5,665.5C 780.326,666.01 777.992,667.677 776.5,670.5C 774.973,670.427 773.973,671.094 773.5,672.5C 771.973,672.427 770.973,673.094 770.5,674.5C 769.29,674.932 768.29,675.599 767.5,676.5C 765.973,676.427 764.973,677.094 764.5,678.5C 762.973,678.427 761.973,679.094 761.5,680.5C 759.566,681.11 757.899,682.11 756.5,683.5C 754.973,683.427 753.973,684.094 753.5,685.5C 752.508,685.328 751.842,685.662 751.5,686.5C 749.847,686.66 748.514,687.326 747.5,688.5C 745.973,688.427 744.973,689.094 744.5,690.5C 743.508,690.328 742.842,690.662 742.5,691.5C 740.847,691.66 739.514,692.326 738.5,693.5C 735.515,694.326 732.849,695.659 730.5,697.5C 728.447,697.402 726.78,698.069 725.5,699.5C 721.424,701.186 717.424,702.853 713.5,704.5C 710.937,705.088 708.604,706.088 706.5,707.5C 704.901,707.232 703.568,707.566 702.5,708.5C 700.214,708.595 698.214,709.262 696.5,710.5C 693.341,711.331 690.341,712.331 687.5,713.5C 683.43,713.432 679.763,714.432 676.5,716.5C 673.273,716.676 670.273,717.343 667.5,718.5C 659.536,718.919 651.87,720.253 644.5,722.5C 641.455,722.492 638.455,722.159 635.5,721.5C 630.669,720.232 625.669,719.232 620.5,718.5C 616.476,717.962 612.476,717.295 608.5,716.5C 607.292,715.766 605.959,715.433 604.5,715.5C 601.063,714.055 597.397,713.055 593.5,712.5C 591.5,711.833 589.5,711.167 587.5,710.5C 586.432,709.566 585.099,709.232 583.5,709.5C 581.064,708.129 578.397,707.129 575.5,706.5C 575.167,706.5 574.833,706.5 574.5,706.5C 572.68,704.552 570.346,703.552 567.5,703.5C 566.329,702.655 564.995,701.989 563.5,701.5C 562.391,701.443 561.391,701.11 560.5,700.5C 559.22,699.069 557.553,698.402 555.5,698.5C 553.75,697.13 551.75,696.13 549.5,695.5C 548.486,694.326 547.153,693.66 545.5,693.5C 544.486,692.326 543.153,691.66 541.5,691.5C 540.833,691.167 540.167,690.833 539.5,690.5C 537.421,688.127 534.754,686.794 531.5,686.5C 531.5,685.833 531.167,685.5 530.5,685.5C 528.206,683.347 525.54,681.68 522.5,680.5C 521.833,680.167 521.167,679.833 520.5,679.5C 520.027,678.094 519.027,677.427 517.5,677.5C 513.852,674.34 509.852,671.673 505.5,669.5C 504.965,667.554 503.632,666.554 501.5,666.5C 498.973,664.395 496.64,662.061 494.5,659.5C 493.833,659.5 493.167,659.5 492.5,659.5C 492.5,658.167 491.833,657.5 490.5,657.5C 489.5,655.833 488.167,654.5 486.5,653.5C 486.027,652.094 485.027,651.427 483.5,651.5C 482.167,649.5 480.5,647.833 478.5,646.5C 477.833,645.167 476.833,644.167 475.5,643.5C 474.833,643.5 474.5,643.167 474.5,642.5C 473.5,640.833 472.167,639.5 470.5,638.5C 469.833,637.833 469.167,637.167 468.5,636.5C 466.5,634.5 464.5,632.5 462.5,630.5C 462.167,629.5 461.5,628.833 460.5,628.5C 460.573,626.973 459.906,625.973 458.5,625.5C 455.805,622.474 453.138,619.474 450.5,616.5C 449.92,614.251 448.587,612.585 446.5,611.5C 446.573,609.973 445.906,608.973 444.5,608.5C 444.262,606.596 443.262,605.262 441.5,604.5C 441.573,602.973 440.906,601.973 439.5,601.5C 439.573,599.973 438.906,598.973 437.5,598.5C 437.068,597.29 436.401,596.29 435.5,595.5C 435.573,593.973 434.906,592.973 433.5,592.5C 432.737,590.632 431.737,588.965 430.5,587.5C 430.573,585.973 429.906,584.973 428.5,584.5C 426.153,579.807 423.82,575.14 421.5,570.5C 421.167,570.5 420.833,570.5 420.5,570.5C 420.598,568.447 419.931,566.78 418.5,565.5C 417.89,563.566 416.89,561.899 415.5,560.5C 415.598,558.447 414.931,556.78 413.5,555.5C 413.771,553.62 413.104,552.287 411.5,551.5C 410.871,548.603 409.871,545.936 408.5,543.5C 407.912,540.937 406.912,538.604 405.5,536.5C 405.737,535.209 405.404,534.209 404.5,533.5C 404.554,530.008 403.554,527.008 401.5,524.5C 400.475,519.067 399.142,513.733 397.5,508.5C 397.946,505.99 397.28,503.99 395.5,502.5C 395.5,501.5 395.5,500.5 395.5,499.5C 394.701,494.675 393.701,490.008 392.5,485.5C 391.494,478.716 390.494,472.049 389.5,465.5C 388.529,330.506 388.196,195.506 388.5,60.5C 557.167,60.5 725.833,60.5 894.5,60.5C 894.5,192.833 894.5,325.167 894.5,457.5 Z M 811.5,126.5 C 811.973,127.906 812.973,128.573 814.5,128.5C 814.833,129.5 815.5,130.167 816.5,130.5C 816.427,132.027 817.094,133.027 818.5,133.5C 818.427,135.027 819.094,136.027 820.5,136.5C 821.633,139.738 822.467,143.071 823,146.5C 823.667,250.5 823.667,354.5 823,458.5C 822.433,461.168 821.933,463.834 821.5,466.5C 820.11,467.899 819.11,469.566 818.5,471.5C 815.808,473.862 813.141,476.196 810.5,478.5C 807.982,479.264 805.649,480.264 803.5,481.5C 799.5,481.5 795.5,481.5 791.5,481.5C 790.713,479.896 789.38,479.229 787.5,479.5C 785.795,477.808 783.795,476.475 781.5,475.5C 780.581,472.911 778.914,470.911 776.5,469.5C 776.672,468.508 776.338,467.842 775.5,467.5C 774.945,463.603 773.945,459.937 772.5,456.5C 772.5,353.833 772.5,251.167 772.5,148.5C 773.969,144.313 775.302,139.98 776.5,135.5C 777.338,135.158 777.672,134.492 777.5,133.5C 779.833,131.833 781.833,129.833 783.5,127.5C 785.153,127.34 786.486,126.674 787.5,125.5C 788.5,124.833 789.5,124.167 790.5,123.5C 797.906,122.013 804.906,123.013 811.5,126.5 Z M 488.5,244.5 C 489.659,246.25 491.326,247.25 493.5,247.5C 495.142,248.803 496.809,250.136 498.5,251.5C 498.427,253.027 499.094,254.027 500.5,254.5C 501.167,255.833 501.833,257.167 502.5,258.5C 504.115,277.602 505.449,296.602 506.5,315.5C 506.287,346.985 506.287,378.319 506.5,409.5C 505.82,417.902 505.154,426.402 504.5,435C 505.056,435.383 505.389,435.883 505.5,436.5C 504.862,447.064 503.862,457.73 502.5,468.5C 501.962,470.117 501.629,471.784 501.5,473.5C 499.896,474.287 499.229,475.62 499.5,477.5C 497.244,481.097 494.577,484.431 491.5,487.5C 489.847,487.66 488.514,488.326 487.5,489.5C 485.62,489.229 484.287,489.896 483.5,491.5C 482.5,491.5 481.5,491.5 480.5,491.5C 479.22,490.069 477.553,489.402 475.5,489.5C 472.574,487.916 469.908,485.916 467.5,483.5C 467.573,481.973 466.906,480.973 465.5,480.5C 464.492,478.456 463.492,476.456 462.5,474.5C 461.658,469.255 460.325,464.255 458.5,459.5C 458.5,457.5 458.5,455.5 458.5,453.5C 457.167,394.833 457.167,336.167 458.5,277.5C 458.437,272.797 458.771,268.13 459.5,263.5C 460.612,261.401 461.279,259.067 461.5,256.5C 463.472,252.895 466.139,249.895 469.5,247.5C 471.153,247.34 472.486,246.674 473.5,245.5C 478.353,243.304 483.353,242.971 488.5,244.5 Z"/></g>
<g><path style="opacity:1" fill="#2a41a5" d="M 376.5,41.5 C 555.5,41.5 734.5,41.5 913.5,41.5C 913.5,42.5 913.5,43.5 913.5,44.5C 912.833,43.8333 912.167,43.1667 911.5,42.5C 736.082,42.1755 560.582,42.5088 385,43.5C 382.061,42.8719 379.228,42.2052 376.5,41.5 Z"/></g>
<g><path style="opacity:1" fill="#243c9e" d="M 911.5,42.5 C 912.167,43.1667 912.833,43.8333 913.5,44.5C 913.5,44.8333 913.5,45.1667 913.5,45.5C 912.667,182.666 912.167,319.999 912,457.5C 911.219,456.271 910.719,454.938 910.5,453.5C 910.186,316.797 910.52,179.797 911.5,42.5 Z"/></g>
<g><path style="opacity:1" fill="#2a41a6" d="M 372.5,45.5 C 374.341,176.537 375.174,307.871 375,439.5C 374.25,438.874 373.416,438.374 372.5,438C 373.654,437.086 373.487,436.253 372,435.5C 371.174,305.479 371.34,175.479 372.5,45.5 Z"/></g>
<g><path style="opacity:0.341" fill="#bfcae9" d="M 369.5,40.5 C 369.5,40.8333 369.5,41.1667 369.5,41.5C 369.189,183.507 369.523,325.507 370.5,467.5C 369.679,464.359 369.179,461.025 369,457.5C 368.167,318.333 368.334,179.333 369.5,40.5 Z"/></g>
<g><path style="opacity:1" fill="#283f9e" d="M 897.5,69.5 C 897.5,191.5 897.5,313.5 897.5,435.5C 897.108,448.079 896.275,460.745 895,473.5C 894.568,468.154 894.734,462.82 895.5,457.5C 895.5,324.833 895.5,192.167 895.5,59.5C 727,58.6668 558.334,58.1668 389.5,58C 558.501,57.1667 727.501,57.3333 896.5,58.5C 897.426,62.0938 897.759,65.7604 897.5,69.5 Z"/></g>
<g><path style="opacity:0.447" fill="#b0bde5" d="M 895.5,59.5 C 895.5,192.167 895.5,324.833 895.5,457.5C 895.167,457.5 894.833,457.5 894.5,457.5C 894.5,325.167 894.5,192.833 894.5,60.5C 725.833,60.5 557.167,60.5 388.5,60.5C 388.196,195.506 388.529,330.506 389.5,465.5C 388.674,461.018 388.174,456.351 388,451.5C 387.5,320.834 387.333,190.167 387.5,59.5C 556.833,59.5 726.167,59.5 895.5,59.5 Z"/></g>
<g><path style="opacity:1" fill="#2a41a6" d="M 897.5,435.5 C 897.5,313.5 897.5,191.5 897.5,69.5C 898.65,68.1498 899.317,68.3164 899.5,70C 899.088,191.794 899.088,313.461 899.5,435C 898.906,435.464 898.239,435.631 897.5,435.5 Z"/></g>
<g><path style="opacity:0.584" fill="#abb7e2" d="M 686.5,88.5 C 676.275,85.9188 665.942,85.2522 655.5,86.5C 665.37,84.1029 675.37,84.2695 685.5,87C 686.056,87.3826 686.389,87.8826 686.5,88.5 Z"/></g>
<g><path style="opacity:0.341" fill="#b5c1e9" d="M 507.5,89.5 C 490.25,85.9171 472.917,85.5838 455.5,88.5C 458.868,86.941 462.535,86.1077 466.5,86C 478.202,85.1989 489.868,85.5322 501.5,87C 503.974,87.0367 505.974,87.87 507.5,89.5 Z"/></g>
<g><path style="opacity:0.341" fill="#c3ceed" d="M 655.5,86.5 C 652.659,87.6693 649.659,88.6693 646.5,89.5C 648.919,87.1376 651.919,86.1376 655.5,86.5 Z"/></g>
<g><path style="opacity:1" fill="#2b42a0" d="M 507.5,89.5 C 511.595,91.2791 515.928,92.6124 520.5,93.5C 522.153,93.6596 523.486,94.3263 524.5,95.5C 524.973,96.9063 525.973,97.573 527.5,97.5C 531.121,99.1313 534.121,101.465 536.5,104.5C 537.08,106.749 538.413,108.415 540.5,109.5C 541.401,110.29 542.068,111.29 542.5,112.5C 542.66,114.153 543.326,115.486 544.5,116.5C 546.065,118.509 547.065,120.843 547.5,123.5C 547.796,125.403 548.463,127.07 549.5,128.5C 550.434,129.568 550.768,130.901 550.5,132.5C 549.886,137.069 550.886,141.069 553.5,144.5C 553.999,149.492 554.499,154.492 555,159.5C 555.5,275.833 555.667,392.166 555.5,508.5C 520.268,507.972 485.268,507.972 450.5,508.5C 449.07,507.463 447.403,506.796 445.5,506.5C 444.041,506.567 442.708,506.234 441.5,505.5C 440.713,503.896 439.38,503.229 437.5,503.5C 436.508,503.672 435.842,503.338 435.5,502.5C 435.027,501.094 434.027,500.427 432.5,500.5C 431.415,498.413 429.749,497.08 427.5,496.5C 425.413,495.415 424.08,493.749 423.5,491.5C 422.404,488.968 421.071,486.635 419.5,484.5C 418.326,483.486 417.66,482.153 417.5,480.5C 416.583,474.942 415.25,469.609 413.5,464.5C 412.179,397.02 412.179,329.687 413.5,262.5C 414.785,259.411 415.451,256.078 415.5,252.5C 416.059,249.057 417.393,246.057 419.5,243.5C 420.906,243.027 421.573,242.027 421.5,240.5C 422.906,240.027 423.573,239.027 423.5,237.5C 424.167,236.167 425.167,235.167 426.5,234.5C 429.764,232.906 432.431,230.573 434.5,227.5C 436.027,227.573 437.027,226.906 437.5,225.5C 437.842,224.662 438.508,224.328 439.5,224.5C 441.027,224.573 442.027,223.906 442.5,222.5C 444.792,220.733 447.458,219.733 450.5,219.5C 458.825,218.254 467.158,218.254 475.5,219.5C 476.167,219.5 476.833,219.5 477.5,219.5C 482.801,221.831 488.468,223.165 494.5,223.5C 497.443,223.98 500.11,224.98 502.5,226.5C 503.568,227.434 504.901,227.768 506.5,227.5C 506.667,203.831 506.5,180.164 506,156.5C 505.814,153.964 505.314,151.631 504.5,149.5C 503.385,146.169 502.051,142.836 500.5,139.5C 500.446,137.368 499.446,136.035 497.5,135.5C 494.534,133.012 491.201,131.012 487.5,129.5C 487.389,128.883 487.056,128.383 486.5,128C 481.167,127.333 475.833,127.333 470.5,128C 469.944,128.383 469.611,128.883 469.5,129.5C 468.833,129.5 468.167,129.5 467.5,129.5C 466.29,129.932 465.29,130.599 464.5,131.5C 462.973,131.427 461.973,132.094 461.5,133.5C 461.5,134.167 461.167,134.5 460.5,134.5C 459.094,134.973 458.427,135.973 458.5,137.5C 458.5,138.167 458.167,138.5 457.5,138.5C 456.778,138.918 456.278,139.584 456,140.5C 455.5,157.163 455.333,173.83 455.5,190.5C 442.167,190.5 428.833,190.5 415.5,190.5C 415.333,171.83 415.5,153.164 416,134.5C 416.42,130.809 416.92,127.142 417.5,123.5C 419.074,121.898 419.741,119.898 419.5,117.5C 419.263,116.209 419.596,115.209 420.5,114.5C 421.674,113.486 422.34,112.153 422.5,110.5C 423.906,110.027 424.573,109.027 424.5,107.5C 424.5,106.833 424.833,106.5 425.5,106.5C 426.906,106.027 427.573,105.027 427.5,103.5C 430.427,102.243 432.761,100.243 434.5,97.5C 436.027,97.573 437.027,96.9063 437.5,95.5C 438.514,94.3263 439.847,93.6596 441.5,93.5C 443.153,93.3404 444.486,92.6737 445.5,91.5C 447.696,91.41 449.863,91.0767 452,90.5C 453.376,90.3158 454.209,89.6491 454.5,88.5C 454.833,88.5 455.167,88.5 455.5,88.5C 472.917,85.5838 490.25,85.9171 507.5,89.5 Z M 488.5,244.5 C 489.659,246.25 491.326,247.25 493.5,247.5C 495.142,248.803 496.809,250.136 498.5,251.5C 498.427,253.027 499.094,254.027 500.5,254.5C 501.167,255.833 501.833,257.167 502.5,258.5C 504.115,277.602 505.449,296.602 506.5,315.5C 506.287,346.985 506.287,378.319 506.5,409.5C 505.82,417.902 505.154,426.402 504.5,435C 505.056,435.383 505.389,435.883 505.5,436.5C 504.862,447.064 503.862,457.73 502.5,468.5C 501.962,470.117 501.629,471.784 501.5,473.5C 499.896,474.287 499.229,475.62 499.5,477.5C 497.244,481.097 494.577,484.431 491.5,487.5C 489.847,487.66 488.514,488.326 487.5,489.5C 485.62,489.229 484.287,489.896 483.5,491.5C 482.5,491.5 481.5,491.5 480.5,491.5C 479.22,490.069 477.553,489.402 475.5,489.5C 472.574,487.916 469.908,485.916 467.5,483.5C 467.573,481.973 466.906,480.973 465.5,480.5C 464.492,478.456 463.492,476.456 462.5,474.5C 461.658,469.255 460.325,464.255 458.5,459.5C 458.5,457.5 458.5,455.5 458.5,453.5C 457.167,394.833 457.167,336.167 458.5,277.5C 458.437,272.797 458.771,268.13 459.5,263.5C 460.612,261.401 461.279,259.067 461.5,256.5C 463.472,252.895 466.139,249.895 469.5,247.5C 471.153,247.34 472.486,246.674 473.5,245.5C 478.353,243.304 483.353,242.971 488.5,244.5 Z"/></g>
<g><path style="opacity:1" fill="#2a419f" d="M 686.5,88.5 C 686.833,88.5 687.167,88.5 687.5,88.5C 689.26,90.5587 691.594,91.892 694.5,92.5C 696.754,93.1237 698.421,94.457 699.5,96.5C 699.738,98.4044 700.738,99.7377 702.5,100.5C 703.5,100.833 704.167,101.5 704.5,102.5C 704.427,104.027 705.094,105.027 706.5,105.5C 708.008,107.181 709.008,109.181 709.5,111.5C 709.66,113.153 710.326,114.486 711.5,115.5C 712.458,143.479 712.791,171.479 712.5,199.5C 695.5,199.5 678.5,199.5 661.5,199.5C 661.667,181.83 661.5,164.164 661,146.5C 660.878,144.563 660.045,143.23 658.5,142.5C 658.167,141.833 657.833,141.167 657.5,140.5C 657.167,138.167 655.833,136.833 653.5,136.5C 652.082,134.692 650.082,134.025 647.5,134.5C 643.055,135.22 639.388,137.22 636.5,140.5C 634.952,140.821 634.285,141.821 634.5,143.5C 633.833,144.5 633.167,145.5 632.5,146.5C 631.833,312.236 631.166,478.069 630.5,644C 630.912,645.564 631.245,647.064 631.5,648.5C 617.342,648.981 603.342,648.481 589.5,647C 594.378,648.031 594.711,647.031 590.5,644C 591.122,642.431 591.456,640.764 591.5,639C 589.829,457.195 588.829,275.362 588.5,93.5C 602.833,93.5 617.167,93.5 631.5,93.5C 632.338,93.8417 632.672,94.5084 632.5,95.5C 632.694,99.0048 633.694,99.3382 635.5,96.5C 636.795,95.5116 638.128,94.5116 639.5,93.5C 641.027,93.573 642.027,92.9063 642.5,91.5C 643.514,90.3263 644.847,89.6596 646.5,89.5C 649.659,88.6693 652.659,87.6693 655.5,86.5C 665.942,85.2522 676.275,85.9188 686.5,88.5 Z"/></g>
<g><path style="opacity:0.894" fill="#808ecf" d="M 454.5,88.5 C 454.209,89.6491 453.376,90.3158 452,90.5C 449.863,91.0767 447.696,91.41 445.5,91.5C 448.383,90.3939 451.217,89.0606 454,87.5C 454.399,87.7284 454.565,88.0618 454.5,88.5 Z"/></g>
<g><path style="opacity:1" fill="#8c98d6" d="M 694.5,92.5 C 691.594,91.892 689.26,90.5587 687.5,88.5C 687.435,88.0618 687.601,87.7284 688,87.5C 690.261,89.0795 692.427,90.7462 694.5,92.5 Z"/></g>
<g><path style="opacity:0.447" fill="#a5afdc" d="M 507.5,89.5 C 512.264,89.7689 516.597,91.1022 520.5,93.5C 515.928,92.6124 511.595,91.2791 507.5,89.5 Z"/></g>
<g><path style="opacity:0.341" fill="#c7d1ee" d="M 813.5,93.5 C 803.5,92.1667 793.5,92.1667 783.5,93.5C 788.077,92.0103 792.91,91.3437 798,91.5C 803.411,91.3793 808.577,92.046 813.5,93.5 Z"/></g>
<g><path style="opacity:0.584" fill="#b6c3eb" d="M 445.5,91.5 C 444.486,92.6737 443.153,93.3404 441.5,93.5C 442.287,91.8958 443.62,91.2291 445.5,91.5 Z"/></g>
<g><path style="opacity:0.725" fill="#b3bee7" d="M 642.5,91.5 C 642.027,92.9063 641.027,93.573 639.5,93.5C 639.973,92.0937 640.973,91.427 642.5,91.5 Z"/></g>
<g><path style="opacity:0.765" fill="#7e8bc4" d="M 631.5,93.5 C 617.167,93.5 602.833,93.5 588.5,93.5C 587.5,278.666 587.167,463.999 587.5,649.5C 587.167,649.5 586.833,649.5 586.5,649.5C 586.5,463.833 586.5,278.167 586.5,92.5C 601.162,91.7532 615.829,91.5865 630.5,92C 631.056,92.3826 631.389,92.8826 631.5,93.5 Z"/></g>
<g><path style="opacity:1" fill="#2b42a0" d="M 813.5,93.5 C 815.597,95.4824 818.264,96.4824 821.5,96.5C 823.701,97.5664 826.035,98.233 828.5,98.5C 831.032,99.5957 833.365,100.929 835.5,102.5C 835.877,104.824 836.877,105.491 838.5,104.5C 839.167,104.833 839.833,105.167 840.5,105.5C 841.326,107.264 842.659,108.598 844.5,109.5C 846.027,109.427 847.027,110.094 847.5,111.5C 847.5,113.5 848.5,114.5 850.5,114.5C 853.449,116.373 855.449,119.039 856.5,122.5C 856.932,123.71 857.599,124.71 858.5,125.5C 858.427,127.027 859.094,128.027 860.5,128.5C 861.906,128.973 862.573,129.973 862.5,131.5C 862.402,133.553 863.069,135.22 864.5,136.5C 867.013,140.378 868.346,144.711 868.5,149.5C 869.639,249.159 869.805,348.826 869,448.5C 868.573,453.588 867.74,458.588 866.5,463.5C 866.5,464.167 866.5,464.833 866.5,465.5C 864.552,467.32 863.552,469.654 863.5,472.5C 861.992,474.181 860.992,476.181 860.5,478.5C 860.5,479.167 860.167,479.5 859.5,479.5C 858.326,480.514 857.66,481.847 857.5,483.5C 856.54,485.461 855.207,487.127 853.5,488.5C 852.833,488.833 852.167,489.167 851.5,489.5C 849.952,489.821 849.285,490.821 849.5,492.5C 846.014,492.295 845.014,493.629 846.5,496.5C 844.973,496.427 843.973,497.094 843.5,498.5C 842.055,500.063 840.389,501.396 838.5,502.5C 836.847,502.66 835.514,503.326 834.5,504.5C 834.027,505.906 833.027,506.573 831.5,506.5C 829.847,506.66 828.514,507.326 827.5,508.5C 825.214,508.595 823.214,509.262 821.5,510.5C 820.07,511.537 818.403,512.204 816.5,512.5C 810.33,513.067 804.163,513.734 798,514.5C 791.846,513.65 785.68,512.983 779.5,512.5C 776.603,511.871 773.936,510.871 771.5,509.5C 769.819,507.992 767.819,506.992 765.5,506.5C 763.181,506.008 761.181,505.008 759.5,503.5C 759.027,502.094 758.027,501.427 756.5,501.5C 750.167,497.167 744.833,491.833 740.5,485.5C 740.13,482.733 738.796,480.733 736.5,479.5C 736.5,479.167 736.5,478.833 736.5,478.5C 736.068,477.29 735.401,476.29 734.5,475.5C 734.598,473.447 733.931,471.78 732.5,470.5C 731.662,470.158 731.328,469.492 731.5,468.5C 730.79,464.975 729.79,461.642 728.5,458.5C 727.518,357.178 727.185,255.845 727.5,154.5C 728.687,151.054 729.354,147.387 729.5,143.5C 730.438,139.687 731.771,136.021 733.5,132.5C 734.906,132.027 735.573,131.027 735.5,129.5C 736.11,127.566 737.11,125.899 738.5,124.5C 739.906,124.027 740.573,123.027 740.5,121.5C 743.43,116.234 747.43,111.901 752.5,108.5C 754.853,107.66 756.853,106.326 758.5,104.5C 760.882,103.649 762.882,102.316 764.5,100.5C 765.514,99.3263 766.847,98.6596 768.5,98.5C 770.553,98.5979 772.22,97.9313 773.5,96.5C 775.848,96.3305 778.182,95.9971 780.5,95.5C 782.03,95.3601 783.03,94.6935 783.5,93.5C 793.5,92.1667 803.5,92.1667 813.5,93.5 Z M 811.5,126.5 C 811.973,127.906 812.973,128.573 814.5,128.5C 814.833,129.5 815.5,130.167 816.5,130.5C 816.427,132.027 817.094,133.027 818.5,133.5C 818.427,135.027 819.094,136.027 820.5,136.5C 821.633,139.738 822.467,143.071 823,146.5C 823.667,250.5 823.667,354.5 823,458.5C 822.433,461.168 821.933,463.834 821.5,466.5C 820.11,467.899 819.11,469.566 818.5,471.5C 815.808,473.862 813.141,476.196 810.5,478.5C 807.982,479.264 805.649,480.264 803.5,481.5C 799.5,481.5 795.5,481.5 791.5,481.5C 790.713,479.896 789.38,479.229 787.5,479.5C 785.795,477.808 783.795,476.475 781.5,475.5C 780.581,472.911 778.914,470.911 776.5,469.5C 776.672,468.508 776.338,467.842 775.5,467.5C 774.945,463.603 773.945,459.937 772.5,456.5C 772.5,353.833 772.5,251.167 772.5,148.5C 773.969,144.313 775.302,139.98 776.5,135.5C 777.338,135.158 777.672,134.492 777.5,133.5C 779.833,131.833 781.833,129.833 783.5,127.5C 785.153,127.34 786.486,126.674 787.5,125.5C 788.5,124.833 789.5,124.167 790.5,123.5C 797.906,122.013 804.906,123.013 811.5,126.5 Z"/></g>
<g><path style="opacity:0.894" fill="#7f8bcb" d="M 783.5,93.5 C 783.03,94.6935 782.03,95.3601 780.5,95.5C 778.182,95.9971 775.848,96.3305 773.5,96.5C 776.55,94.8993 779.884,93.8993 783.5,93.5 Z"/></g>
<g><path style="opacity:0.765" fill="#828fd0" d="M 813.5,93.5 C 816.167,94.1667 818.833,94.8333 821.5,95.5C 821.5,95.8333 821.5,96.1667 821.5,96.5C 818.264,96.4824 815.597,95.4824 813.5,93.5 Z"/></g>
<g><path style="opacity:0.765" fill="#9fabda" d="M 437.5,95.5 C 437.027,96.9063 436.027,97.573 434.5,97.5C 434.973,96.0937 435.973,95.427 437.5,95.5 Z"/></g>
<g><path style="opacity:0.341" fill="#b6c1e4" d="M 524.5,95.5 C 526.027,95.427 527.027,96.0937 527.5,97.5C 525.973,97.573 524.973,96.9063 524.5,95.5 Z"/></g>
<g><path style="opacity:0.341" fill="#b7c3e8" d="M 632.5,95.5 C 633.391,96.1098 634.391,96.4431 635.5,96.5C 633.694,99.3382 632.694,99.0048 632.5,95.5 Z"/></g>
<g><path style="opacity:0.447" fill="#b2bde4" d="M 773.5,96.5 C 772.22,97.9313 770.553,98.5979 768.5,98.5C 769.78,97.0687 771.447,96.4021 773.5,96.5 Z"/></g>
<g><path style="opacity:0.173" fill="#c7d1f0" d="M 821.5,96.5 C 821.5,96.1667 821.5,95.8333 821.5,95.5C 824.157,95.9348 826.491,96.9348 828.5,98.5C 826.035,98.233 823.701,97.5664 821.5,96.5 Z"/></g>
<g><path style="opacity:0.584" fill="#adb9e7" d="M 699.5,96.5 C 701.262,97.2623 702.262,98.5956 702.5,100.5C 700.738,99.7377 699.738,98.4044 699.5,96.5 Z"/></g>
<g><path style="opacity:1" fill="#8e9bd9" d="M 434.5,97.5 C 432.761,100.243 430.427,102.243 427.5,103.5C 429.239,100.757 431.573,98.7573 434.5,97.5 Z"/></g>
<g><path style="opacity:1" fill="#233a9d" d="M 588.5,93.5 C 588.829,275.362 589.829,457.195 591.5,639C 591.456,640.764 591.122,642.431 590.5,644C 594.711,647.031 594.378,648.031 589.5,647C 603.342,648.481 617.342,648.981 631.5,648.5C 631.833,648.5 632.167,648.5 632.5,648.5C 617.676,649.496 602.676,649.829 587.5,649.5C 587.167,463.999 587.5,278.666 588.5,93.5 Z"/></g>
<g><path style="opacity:0.502" fill="#b5c1ea" d="M 764.5,100.5 C 762.882,102.316 760.882,103.649 758.5,104.5C 759.733,102.204 761.733,100.87 764.5,100.5 Z"/></g>
<g><path style="opacity:0.173" fill="#cfd8f4" d="M 704.5,102.5 C 705.906,102.973 706.573,103.973 706.5,105.5C 705.094,105.027 704.427,104.027 704.5,102.5 Z"/></g>
<g><path style="opacity:1" fill="#8f95cd" d="M 835.5,102.5 C 837.027,102.427 838.027,103.094 838.5,104.5C 836.877,105.491 835.877,104.824 835.5,102.5 Z"/></g>
<g><path style="opacity:0.584" fill="#a3b0e4" d="M 427.5,103.5 C 427.573,105.027 426.906,106.027 425.5,106.5C 425.427,104.973 426.094,103.973 427.5,103.5 Z"/></g>
<g><path style="opacity:0.502" fill="#a0abde" d="M 758.5,104.5 C 756.853,106.326 754.853,107.66 752.5,108.5C 753.802,106.178 755.802,104.845 758.5,104.5 Z"/></g>
<g><path style="opacity:0.765" fill="#adb7de" d="M 840.5,105.5 C 842.773,105.957 844.106,107.29 844.5,109.5C 842.659,108.598 841.326,107.264 840.5,105.5 Z"/></g>
<g><path style="opacity:0.765" fill="#9ba5d9" d="M 536.5,104.5 C 538.587,105.585 539.92,107.251 540.5,109.5C 538.413,108.415 537.08,106.749 536.5,104.5 Z"/></g>
<g><path style="opacity:0.447" fill="#b3bbe5" d="M 424.5,107.5 C 424.573,109.027 423.906,110.027 422.5,110.5C 422.427,108.973 423.094,107.973 424.5,107.5 Z"/></g>
<g><path style="opacity:0.341" fill="#bdc9ec" d="M 422.5,110.5 C 422.34,112.153 421.674,113.486 420.5,114.5C 420.229,112.62 420.896,111.287 422.5,110.5 Z"/></g>
<g><path style="opacity:0.894" fill="#a2abe0" d="M 847.5,111.5 C 848.833,112.167 849.833,113.167 850.5,114.5C 848.5,114.5 847.5,113.5 847.5,111.5 Z"/></g>
<g><path style="opacity:0.341" fill="#b8c2e5" d="M 709.5,111.5 C 711.104,112.287 711.771,113.62 711.5,115.5C 710.326,114.486 709.66,113.153 709.5,111.5 Z"/></g>
<g><path style="opacity:0.173" fill="#c7d2f1" d="M 542.5,112.5 C 544.104,113.287 544.771,114.62 544.5,116.5C 543.326,115.486 542.66,114.153 542.5,112.5 Z"/></g>
<g><path style="opacity:1" fill="#7280ca" d="M 419.5,117.5 C 419.741,119.898 419.074,121.898 417.5,123.5C 417.5,123.167 417.5,122.833 417.5,122.5C 417.402,120.447 418.069,118.78 419.5,117.5 Z"/></g>
<g><path style="opacity:1" fill="#7d90d2" d="M 811.5,126.5 C 804.906,123.013 797.906,122.013 790.5,123.5C 793.856,121.621 797.523,121.121 801.5,122C 805.742,121.738 809.075,123.238 811.5,126.5 Z"/></g>
<g><path style="opacity:0.765" fill="#a4afdb" d="M 740.5,121.5 C 740.573,123.027 739.906,124.027 738.5,124.5C 738.427,122.973 739.094,121.973 740.5,121.5 Z"/></g>
<g><path style="opacity:0.067" fill="#c0cced" d="M 856.5,122.5 C 858.048,122.821 858.715,123.821 858.5,125.5C 857.599,124.71 856.932,123.71 856.5,122.5 Z"/></g>
<g><path style="opacity:0.173" fill="#cdd6f2" d="M 547.5,123.5 C 549.213,124.635 549.88,126.302 549.5,128.5C 548.463,127.07 547.796,125.403 547.5,123.5 Z"/></g>
<g><path style="opacity:0.173" fill="#bcc7ea" d="M 787.5,125.5 C 786.486,126.674 785.153,127.34 783.5,127.5C 784.287,125.896 785.62,125.229 787.5,125.5 Z"/></g>
<g><path style="opacity:1" fill="#9dadde" d="M 811.5,126.5 C 813.027,126.427 814.027,127.094 814.5,128.5C 812.973,128.573 811.973,127.906 811.5,126.5 Z"/></g>
<g><path style="opacity:0.725" fill="#90a0d8" d="M 487.5,129.5 C 481.5,128.167 475.5,128.167 469.5,129.5C 469.611,128.883 469.944,128.383 470.5,128C 475.833,127.333 481.167,127.333 486.5,128C 487.056,128.383 487.389,128.883 487.5,129.5 Z"/></g>
<g><path style="opacity:0.765" fill="#8c9ad2" d="M 858.5,125.5 C 859.906,125.973 860.573,126.973 860.5,128.5C 859.094,128.027 858.427,127.027 858.5,125.5 Z"/></g>
<g><path style="opacity:1" fill="#5c6cbc" d="M 783.5,127.5 C 781.833,129.833 779.833,131.833 777.5,133.5C 778.167,131.5 778.833,129.5 779.5,127.5C 780.833,127.5 782.167,127.5 783.5,127.5 Z"/></g>
<g><path style="opacity:0.067" fill="#ced8f2" d="M 467.5,129.5 C 467.179,131.048 466.179,131.715 464.5,131.5C 465.29,130.599 466.29,129.932 467.5,129.5 Z"/></g>
<g><path style="opacity:0.341" fill="#c1ccec" d="M 735.5,129.5 C 735.573,131.027 734.906,132.027 733.5,132.5C 733.427,130.973 734.094,129.973 735.5,129.5 Z"/></g>
<g><path style="opacity:0.173" fill="#b1bee7" d="M 816.5,130.5 C 817.906,130.973 818.573,131.973 818.5,133.5C 817.094,133.027 816.427,132.027 816.5,130.5 Z"/></g>
<g><path style="opacity:0.173" fill="#bac5ea" d="M 464.5,131.5 C 464.027,132.906 463.027,133.573 461.5,133.5C 461.973,132.094 462.973,131.427 464.5,131.5 Z"/></g>
<g><path style="opacity:0.341" fill="#bdc8eb" d="M 862.5,131.5 C 863.931,132.78 864.598,134.447 864.5,136.5C 863.069,135.22 862.402,133.553 862.5,131.5 Z"/></g>
<g><path style="opacity:1" fill="#9198cc" d="M 647.5,134.5 C 650.082,134.025 652.082,134.692 653.5,136.5C 651.214,136.405 649.214,135.738 647.5,134.5 Z"/></g>
<g><path style="opacity:0.067" fill="#ccd4ef" d="M 460.5,134.5 C 460.573,136.027 459.906,137.027 458.5,137.5C 458.427,135.973 459.094,134.973 460.5,134.5 Z"/></g>
<g><path style="opacity:0.173" fill="#c6d0ef" d="M 818.5,133.5 C 819.906,133.973 820.573,134.973 820.5,136.5C 819.094,136.027 818.427,135.027 818.5,133.5 Z"/></g>
<g><path style="opacity:0.894" fill="#a2aae0" d="M 653.5,136.5 C 655.833,136.833 657.167,138.167 657.5,140.5C 655.833,139.5 654.5,138.167 653.5,136.5 Z"/></g>
<g><path style="opacity:0.067" fill="#c3ccea" d="M 497.5,135.5 C 499.446,136.035 500.446,137.368 500.5,139.5C 499.026,138.564 498.026,137.23 497.5,135.5 Z"/></g>
<g><path style="opacity:1" fill="#626fbe" d="M 550.5,132.5 C 551.79,135.642 552.79,138.975 553.5,142.5C 553.5,143.167 553.5,143.833 553.5,144.5C 550.886,141.069 549.886,137.069 550.5,132.5 Z"/></g>
<g><path style="opacity:1" fill="#a2b1e1" d="M 776.5,135.5 C 775.302,139.98 773.969,144.313 772.5,148.5C 772.262,143.554 773.596,139.221 776.5,135.5 Z"/></g>
<g><path style="opacity:0.765" fill="#97a3d5" d="M 636.5,140.5 C 636.068,141.71 635.401,142.71 634.5,143.5C 634.285,141.821 634.952,140.821 636.5,140.5 Z"/></g>
<g><path style="opacity:0.584" fill="#9daadb" d="M 729.5,143.5 C 729.354,147.387 728.687,151.054 727.5,154.5C 727.251,150.542 727.918,146.876 729.5,143.5 Z"/></g>
<g><path style="opacity:1" fill="#1f3792" d="M 632.5,146.5 C 632.5,313.833 632.5,481.167 632.5,648.5C 632.167,648.5 631.833,648.5 631.5,648.5C 631.245,647.064 630.912,645.564 630.5,644C 631.166,478.069 631.833,312.236 632.5,146.5 Z"/></g>
<g><path style="opacity:0.447" fill="#b1bce4" d="M 820.5,136.5 C 821.117,136.611 821.617,136.944 822,137.5C 823.154,141.104 823.987,144.771 824.5,148.5C 824.5,252.167 824.5,355.833 824.5,459.5C 823.869,461.975 822.869,464.309 821.5,466.5C 821.933,463.834 822.433,461.168 823,458.5C 823.667,354.5 823.667,250.5 823,146.5C 822.467,143.071 821.633,139.738 820.5,136.5 Z"/></g>
<g><path style="opacity:0.447" fill="#b0bbe3" d="M 658.5,142.5 C 660.045,143.23 660.878,144.563 661,146.5C 661.5,164.164 661.667,181.83 661.5,199.5C 661.5,199.833 661.5,200.167 661.5,200.5C 660.668,183.672 660.168,166.672 660,149.5C 659.71,147.08 659.21,144.746 658.5,142.5 Z"/></g>
<g><path style="opacity:1" fill="#273fa2" d="M 824.5,148.5 C 825.333,248.666 825.833,348.999 826,449.5C 826.167,352.498 826.667,255.498 827.5,158.5C 828.667,254.498 828.833,350.498 828,446.5C 827.667,449.5 827.333,452.5 827,455.5C 826.667,454.167 826.333,452.833 826,451.5C 825.817,454.365 825.317,457.031 824.5,459.5C 824.5,355.833 824.5,252.167 824.5,148.5 Z"/></g>
<g><path style="opacity:0.894" fill="#6677c9" d="M 727.5,154.5 C 727.185,255.845 727.518,357.178 728.5,458.5C 727.691,456.708 727.191,454.708 727,452.5C 726.168,352.999 726.334,253.666 727.5,154.5 Z"/></g>
<g><path style="opacity:0.447" fill="#b3bde4" d="M 868.5,149.5 C 869.317,151.969 869.817,154.635 870,157.5C 870.667,254.833 870.667,352.167 870,449.5C 869.579,453.872 868.912,458.205 868,462.5C 867.617,463.056 867.117,463.389 866.5,463.5C 867.74,458.588 868.573,453.588 869,448.5C 869.805,348.826 869.639,249.159 868.5,149.5 Z"/></g>
<g><path style="opacity:0.341" fill="#bfcaea" d="M 504.5,149.5 C 505.314,151.631 505.814,153.964 506,156.5C 506.5,180.164 506.667,203.831 506.5,227.5C 504.901,227.768 503.568,227.434 502.5,226.5C 503.5,226.5 504.5,226.5 505.5,226.5C 505.734,200.82 505.4,175.154 504.5,149.5 Z"/></g>
<g><path style="opacity:0.502" fill="#9aaade" d="M 417.5,122.5 C 417.5,122.833 417.5,123.167 417.5,123.5C 416.92,127.142 416.42,130.809 416,134.5C 415.5,153.164 415.333,171.83 415.5,190.5C 428.833,190.5 442.167,190.5 455.5,190.5C 455.333,173.83 455.5,157.163 456,140.5C 456.278,139.584 456.778,138.918 457.5,138.5C 456.453,155.678 456.286,173.011 457,190.5C 442.912,191.49 428.745,191.824 414.5,191.5C 414.333,171.831 414.5,152.164 415,132.5C 415.149,128.867 415.982,125.534 417.5,122.5 Z"/></g>
<g><path style="opacity:1" fill="#8e9fd5" d="M 711.5,115.5 C 712.103,117.19 713.103,118.69 714.5,120C 713.505,146.759 713.172,173.592 713.5,200.5C 695.991,200.863 678.658,200.863 661.5,200.5C 661.5,200.167 661.5,199.833 661.5,199.5C 678.5,199.5 695.5,199.5 712.5,199.5C 712.791,171.479 712.458,143.479 711.5,115.5 Z"/></g>
<g><path style="opacity:0.173" fill="#d0d9f3" d="M 475.5,219.5 C 467.158,218.254 458.825,218.254 450.5,219.5C 454.034,217.952 457.867,217.286 462,217.5C 466.758,217.366 471.258,218.032 475.5,219.5 Z"/></g>
<g><path style="opacity:0.894" fill="#9aa6db" d="M 477.5,219.5 C 483.398,220.342 489.065,221.676 494.5,223.5C 488.468,223.165 482.801,221.831 477.5,219.5 Z"/></g>
<g><path style="opacity:0.894" fill="#97a3dc" d="M 442.5,222.5 C 442.027,223.906 441.027,224.573 439.5,224.5C 439.973,223.094 440.973,222.427 442.5,222.5 Z"/></g>
<g><path style="opacity:0.894" fill="#94a0db" d="M 437.5,225.5 C 437.027,226.906 436.027,227.573 434.5,227.5C 434.973,226.094 435.973,225.427 437.5,225.5 Z"/></g>
<g><path style="opacity:1" fill="#7984cb" d="M 434.5,227.5 C 432.431,230.573 429.764,232.906 426.5,234.5C 428.569,231.427 431.236,229.094 434.5,227.5 Z"/></g>
<g><path style="opacity:0.447" fill="#b3bbe5" d="M 423.5,237.5 C 423.573,239.027 422.906,240.027 421.5,240.5C 421.427,238.973 422.094,237.973 423.5,237.5 Z"/></g>
<g><path style="opacity:1" fill="#5462b4" d="M 490.5,244.5 C 489.833,244.5 489.167,244.5 488.5,244.5C 483.353,242.971 478.353,243.304 473.5,245.5C 473.62,244.414 474.287,243.747 475.5,243.5C 479.195,242.914 482.862,242.247 486.5,241.5C 488.483,241.815 489.816,242.815 490.5,244.5 Z"/></g>
<g><path style="opacity:0.584" fill="#a0ade2" d="M 421.5,240.5 C 421.573,242.027 420.906,243.027 419.5,243.5C 419.427,241.973 420.094,240.973 421.5,240.5 Z"/></g>
<g><path style="opacity:0.173" fill="#c3ccec" d="M 488.5,244.5 C 489.167,244.5 489.833,244.5 490.5,244.5C 491.694,245.272 492.694,246.272 493.5,247.5C 491.326,247.25 489.659,246.25 488.5,244.5 Z"/></g>
<g><path style="opacity:0.173" fill="#c9d2ee" d="M 473.5,245.5 C 472.486,246.674 471.153,247.34 469.5,247.5C 470.287,245.896 471.62,245.229 473.5,245.5 Z"/></g>
<g><path style="opacity:0.067" fill="#c0c8e8" d="M 498.5,251.5 C 499.906,251.973 500.573,252.973 500.5,254.5C 499.094,254.027 498.427,253.027 498.5,251.5 Z"/></g>
<g><path style="opacity:0.894" fill="#7c8acd" d="M 415.5,252.5 C 415.451,256.078 414.785,259.411 413.5,262.5C 413.322,258.878 413.989,255.544 415.5,252.5 Z"/></g>
<g><path style="opacity:0.341" fill="#c1ccec" d="M 461.5,256.5 C 461.279,259.067 460.612,261.401 459.5,263.5C 459.171,260.772 459.837,258.438 461.5,256.5 Z"/></g>
<g><path style="opacity:0.502" fill="#abb9e7" d="M 553.5,142.5 C 554.871,147.272 555.704,152.272 556,157.5C 556.833,275.001 556.666,392.334 555.5,509.5C 555.5,509.167 555.5,508.833 555.5,508.5C 555.667,392.166 555.5,275.833 555,159.5C 554.499,154.492 553.999,149.492 553.5,144.5C 553.5,143.833 553.5,143.167 553.5,142.5 Z"/></g>
<g><path style="opacity:0.173" fill="#c7d0ef" d="M 502.5,258.5 C 503.117,258.611 503.617,258.944 504,259.5C 505.015,269.843 505.848,280.177 506.5,290.5C 506.5,298.833 506.5,307.167 506.5,315.5C 505.449,296.602 504.115,277.602 502.5,258.5 Z"/></g>
<g><path style="opacity:0.725" fill="#94a2d8" d="M 458.5,277.5 C 457.167,336.167 457.167,394.833 458.5,453.5C 457.71,452.391 457.21,451.058 457,449.5C 456.333,394.167 456.333,338.833 457,283.5C 457.191,281.292 457.691,279.292 458.5,277.5 Z"/></g>
<g><path style="opacity:1" fill="#3e55ac" d="M 506.5,290.5 C 507.833,341.833 507.833,393.167 506.5,444.5C 506.5,432.833 506.5,421.167 506.5,409.5C 506.287,378.319 506.287,346.985 506.5,315.5C 506.5,307.167 506.5,298.833 506.5,290.5 Z"/></g>
<g><path style="opacity:1" fill="#acb9e3" d="M 506.5,409.5 C 506.5,421.167 506.5,432.833 506.5,444.5C 506.167,444.5 505.833,444.5 505.5,444.5C 505.5,441.833 505.5,439.167 505.5,436.5C 505.389,435.883 505.056,435.383 504.5,435C 505.154,426.402 505.82,417.902 506.5,409.5 Z"/></g>
<g><path style="opacity:0.173" fill="#c9d3f0" d="M 505.5,436.5 C 505.5,439.167 505.5,441.833 505.5,444.5C 505.666,449.511 505.499,454.511 505,459.5C 504.943,462.851 504.109,465.851 502.5,468.5C 503.862,457.73 504.862,447.064 505.5,436.5 Z"/></g>
<g><path style="opacity:0.173" fill="#bec7eb" d="M 458.5,459.5 C 460.325,464.255 461.658,469.255 462.5,474.5C 460.17,469.886 458.836,464.886 458.5,459.5 Z"/></g>
<g><path style="opacity:0.173" fill="#c8d2f0" d="M 728.5,458.5 C 729.79,461.642 730.79,464.975 731.5,468.5C 729.288,465.679 728.288,462.345 728.5,458.5 Z"/></g>
<g><path style="opacity:1" fill="#96a6db" d="M 772.5,456.5 C 773.945,459.937 774.945,463.603 775.5,467.5C 773.432,464.237 772.432,460.57 772.5,456.5 Z"/></g>
<g><path style="opacity:0.502" fill="#b7c3e9" d="M 370.5,468.5 C 371.451,469.919 371.784,471.585 371.5,473.5C 369.462,472.144 369.128,470.477 370.5,468.5 Z"/></g>
<g><path style="opacity:0.584" fill="#a4b0e0" d="M 866.5,465.5 C 866.065,468.157 865.065,470.491 863.5,472.5C 863.552,469.654 864.552,467.32 866.5,465.5 Z"/></g>
<g><path style="opacity:0.765" fill="#8c99d3" d="M 732.5,470.5 C 733.931,471.78 734.598,473.447 734.5,475.5C 733.069,474.22 732.402,472.553 732.5,470.5 Z"/></g>
<g><path style="opacity:1" fill="#9ba9de" d="M 776.5,469.5 C 778.914,470.911 780.581,472.911 781.5,475.5C 779.086,474.089 777.419,472.089 776.5,469.5 Z"/></g>
<g><path style="opacity:1" fill="#798ad1" d="M 818.5,471.5 C 817.062,475.274 814.395,477.607 810.5,478.5C 813.141,476.196 815.808,473.862 818.5,471.5 Z"/></g>
<g><path style="opacity:0.173" fill="#c0c9ea" d="M 501.5,473.5 C 501.34,475.153 500.674,476.486 499.5,477.5C 499.229,475.62 499.896,474.287 501.5,473.5 Z"/></g>
<g><path style="opacity:0.173" fill="#c8d2f0" d="M 863.5,472.5 C 863.539,475.089 862.539,477.089 860.5,478.5C 860.992,476.181 861.992,474.181 863.5,472.5 Z"/></g>
<g><path style="opacity:0.173" fill="#b9c3e7" d="M 893.5,469.5 C 892.75,476.501 891.917,483.501 891,490.5C 890.844,493.191 890.011,495.524 888.5,497.5C 889.809,487.971 891.476,478.637 893.5,469.5 Z"/></g>
<g><path style="opacity:0.173" fill="#b5c0e6" d="M 413.5,464.5 C 415.25,469.609 416.583,474.942 417.5,480.5C 415.111,475.557 413.777,470.223 413.5,464.5 Z"/></g>
<g><path style="opacity:0.173" fill="#c5cff0" d="M 734.5,475.5 C 735.401,476.29 736.068,477.29 736.5,478.5C 734.952,478.179 734.285,477.179 734.5,475.5 Z"/></g>
<g><path style="opacity:1" fill="#7a8ed3" d="M 913.5,461.5 C 913.03,467.206 912.363,472.873 911.5,478.5C 911.167,478.5 910.833,478.5 910.5,478.5C 910.852,472.588 911.852,466.921 913.5,461.5 Z"/></g>
<g><path style="opacity:0.725" fill="#acb9e5" d="M 910.5,478.5 C 910.833,478.5 911.167,478.5 911.5,478.5C 911.305,484.767 910.305,490.767 908.5,496.5C 909.073,490.489 909.74,484.489 910.5,478.5 Z"/></g>
<g><path style="opacity:1" fill="#939dd8" d="M 736.5,479.5 C 738.796,480.733 740.13,482.733 740.5,485.5C 738.684,483.882 737.351,481.882 736.5,479.5 Z"/></g>
<g><path style="opacity:0.447" fill="#acb8e3" d="M 787.5,479.5 C 789.38,479.229 790.713,479.896 791.5,481.5C 789.847,481.34 788.514,480.674 787.5,479.5 Z"/></g>
<g><path style="opacity:1" fill="#919dd9" d="M 810.5,478.5 C 808.824,480.834 806.491,481.834 803.5,481.5C 805.649,480.264 807.982,479.264 810.5,478.5 Z"/></g>
<g><path style="opacity:1" fill="#a1b1e1" d="M 372.5,481.5 C 374.139,488.317 375.472,495.317 376.5,502.5C 374.989,500.524 374.156,498.191 374,495.5C 373.171,490.863 372.671,486.196 372.5,481.5 Z"/></g>
<g><path style="opacity:0.584" fill="#a4b1e0" d="M 465.5,480.5 C 466.906,480.973 467.573,481.973 467.5,483.5C 466.094,483.027 465.427,482.027 465.5,480.5 Z"/></g>
<g><path style="opacity:0.173" fill="#bac6eb" d="M 859.5,479.5 C 859.771,481.38 859.104,482.713 857.5,483.5C 857.66,481.847 858.326,480.514 859.5,479.5 Z"/></g>
<g><path style="opacity:0.584" fill="#adb8e1" d="M 419.5,484.5 C 421.071,486.635 422.404,488.968 423.5,491.5C 420.917,490.015 419.584,487.682 419.5,484.5 Z"/></g>
<g><path style="opacity:0.341" fill="#b2bde4" d="M 392.5,485.5 C 393.701,490.008 394.701,494.675 395.5,499.5C 394.883,499.389 394.383,499.056 394,498.5C 393.077,494.21 392.577,489.877 392.5,485.5 Z"/></g>
<g><path style="opacity:0.502" fill="#aab5e1" d="M 491.5,487.5 C 490.713,489.104 489.38,489.771 487.5,489.5C 488.514,488.326 489.847,487.66 491.5,487.5 Z"/></g>
<g><path style="opacity:0.173" fill="#cbd4f1" d="M 475.5,489.5 C 477.553,489.402 479.22,490.069 480.5,491.5C 478.447,491.598 476.78,490.931 475.5,489.5 Z"/></g>
<g><path style="opacity:0.067" fill="#cdd6f1" d="M 853.5,488.5 C 853.573,490.027 852.906,491.027 851.5,491.5C 851.5,490.833 851.5,490.167 851.5,489.5C 852.167,489.167 852.833,488.833 853.5,488.5 Z"/></g>
<g><path style="opacity:0.502" fill="#c3ceef" d="M 487.5,489.5 C 486.486,490.674 485.153,491.34 483.5,491.5C 484.287,489.896 485.62,489.229 487.5,489.5 Z"/></g>
<g><path style="opacity:1" fill="#6a73bf" d="M 851.5,489.5 C 851.5,490.167 851.5,490.833 851.5,491.5C 850.167,493.5 848.5,495.167 846.5,496.5C 845.014,493.629 846.014,492.295 849.5,492.5C 849.285,490.821 849.952,489.821 851.5,489.5 Z"/></g>
<g><path style="opacity:1" fill="#97a2da" d="M 427.5,496.5 C 429.749,497.08 431.415,498.413 432.5,500.5C 430.251,499.92 428.585,498.587 427.5,496.5 Z"/></g>
<g><path style="opacity:0.067" fill="#d3dbf2" d="M 846.5,496.5 C 846.027,497.906 845.027,498.573 843.5,498.5C 843.973,497.094 844.973,496.427 846.5,496.5 Z"/></g>
<g><path style="opacity:0.341" fill="#bac3e8" d="M 432.5,500.5 C 434.027,500.427 435.027,501.094 435.5,502.5C 433.973,502.573 432.973,501.906 432.5,500.5 Z"/></g>
<g><path style="opacity:0.173" fill="#cfd8f4" d="M 756.5,501.5 C 758.027,501.427 759.027,502.094 759.5,503.5C 757.973,503.573 756.973,502.906 756.5,501.5 Z"/></g>
<g><path style="opacity:0.067" fill="#d9e1f5" d="M 395.5,502.5 C 397.28,503.99 397.946,505.99 397.5,508.5C 396.262,506.786 395.595,504.786 395.5,502.5 Z"/></g>
<g><path style="opacity:0.502" fill="#b0bbe6" d="M 437.5,503.5 C 439.38,503.229 440.713,503.896 441.5,505.5C 439.847,505.34 438.514,504.674 437.5,503.5 Z"/></g>
<g><path style="opacity:0.502" fill="#b3c0e9" d="M 838.5,502.5 C 837.713,504.104 836.38,504.771 834.5,504.5C 835.514,503.326 836.847,502.66 838.5,502.5 Z"/></g>
<g><path style="opacity:1" fill="#9eade0" d="M 376.5,504.5 C 378.91,510.171 380.576,516.171 381.5,522.5C 378.923,516.871 377.256,510.871 376.5,504.5 Z"/></g>
<g><path style="opacity:0.173" fill="#c9d3f0" d="M 445.5,506.5 C 447.403,506.796 449.07,507.463 450.5,508.5C 448.302,508.88 446.635,508.213 445.5,506.5 Z"/></g>
<g><path style="opacity:0.341" fill="#acb7e2" d="M 765.5,506.5 C 767.819,506.992 769.819,507.992 771.5,509.5C 768.911,509.539 766.911,508.539 765.5,506.5 Z"/></g>
<g><path style="opacity:0.173" fill="#cfd7f3" d="M 831.5,506.5 C 830.713,508.104 829.38,508.771 827.5,508.5C 828.514,507.326 829.847,506.66 831.5,506.5 Z"/></g>
<g><path style="opacity:0.173" fill="#c7d1ef" d="M 887.5,502.5 C 887.58,505.781 886.913,508.781 885.5,511.5C 885.42,508.219 886.087,505.219 887.5,502.5 Z"/></g>
<g><path style="opacity:1" fill="#90a2da" d="M 555.5,508.5 C 555.5,508.833 555.5,509.167 555.5,509.5C 529.24,509.449 502.573,509.782 475.5,510.5C 469.167,510.333 462.833,510.167 456.5,510C 454.292,509.809 452.292,509.309 450.5,508.5C 485.268,507.972 520.268,507.972 555.5,508.5 Z"/></g>
<g><path style="opacity:0.502" fill="#a9b5e1" d="M 827.5,508.5 C 825.898,510.074 823.898,510.741 821.5,510.5C 823.214,509.262 825.214,508.595 827.5,508.5 Z"/></g>
<g><path style="opacity:0.725" fill="#96a5dd" d="M 907.5,501.5 C 906.863,506.035 905.863,510.368 904.5,514.5C 904.672,510.466 905.172,506.466 906,502.5C 906.383,501.944 906.883,501.611 907.5,501.5 Z"/></g>
<g><path style="opacity:0.341" fill="#c0caeb" d="M 779.5,512.5 C 785.68,512.983 791.846,513.65 798,514.5C 804.163,513.734 810.33,513.067 816.5,512.5C 804.169,516.433 791.836,516.433 779.5,512.5 Z"/></g>
<g><path style="opacity:0.173" fill="#bec8eb" d="M 904.5,514.5 C 904.88,516.698 904.213,518.365 902.5,519.5C 902.402,517.447 903.069,515.78 904.5,514.5 Z"/></g>
<g><path style="opacity:1" fill="#717fc7" d="M 885.5,511.5 C 885.493,514.038 885.159,516.538 884.5,519C 884.316,520.376 883.649,521.209 882.5,521.5C 883.21,517.975 884.21,514.642 885.5,511.5 Z"/></g>
<g><path style="opacity:0.173" fill="#c3cded" d="M 401.5,524.5 C 403.554,527.008 404.554,530.008 404.5,533.5C 403.054,530.746 402.054,527.746 401.5,524.5 Z"/></g>
<g><path style="opacity:0.341" fill="#b2bee6" d="M 902.5,521.5 C 901.493,525.859 900.327,530.192 899,534.5C 898.617,535.056 898.117,535.389 897.5,535.5C 898.818,531.229 899.985,526.895 901,522.5C 901.383,521.944 901.883,521.611 902.5,521.5 Z"/></g>
<g><path style="opacity:1" fill="#7986cb" d="M 880.5,528.5 C 880.982,531.831 879.982,534.497 877.5,536.5C 878.129,533.603 879.129,530.936 880.5,528.5 Z"/></g>
<g><path style="opacity:0.173" fill="#bbc7eb" d="M 384.5,532.5 C 385.537,533.93 386.204,535.597 386.5,537.5C 384.787,536.365 384.12,534.698 384.5,532.5 Z"/></g>
<g><path style="opacity:1" fill="#7e88ca" d="M 405.5,536.5 C 406.912,538.604 407.912,540.937 408.5,543.5C 406.182,541.815 405.182,539.481 405.5,536.5 Z"/></g>
<g><path style="opacity:1" fill="#8c9dd8" d="M 387.5,540.5 C 389.472,543.084 390.472,546.084 390.5,549.5C 388.928,546.785 387.928,543.785 387.5,540.5 Z"/></g>
<g><path style="opacity:0.502" fill="#a9b5e0" d="M 876.5,539.5 C 876.267,542.542 875.267,545.208 873.5,547.5C 873.733,544.458 874.733,541.792 876.5,539.5 Z"/></g>
<g><path style="opacity:0.447" fill="#b2bee6" d="M 895.5,541.5 C 895.59,544.152 894.924,546.485 893.5,548.5C 893.41,545.848 894.076,543.515 895.5,541.5 Z"/></g>
<g><path style="opacity:1" fill="#7d88c8" d="M 873.5,547.5 C 873.727,550.438 872.727,552.771 870.5,554.5C 871.088,551.937 872.088,549.604 873.5,547.5 Z"/></g>
<g><path style="opacity:1" fill="#8394d5" d="M 391.5,551.5 C 393.448,553.32 394.448,555.654 394.5,558.5C 392.935,556.491 391.935,554.157 391.5,551.5 Z"/></g>
<g><path style="opacity:0.173" fill="#c7d0ef" d="M 411.5,551.5 C 413.104,552.287 413.771,553.62 413.5,555.5C 412.326,554.486 411.66,553.153 411.5,551.5 Z"/></g>
<g><path style="opacity:0.447" fill="#a9b4df" d="M 413.5,555.5 C 414.931,556.78 415.598,558.447 415.5,560.5C 414.069,559.22 413.402,557.553 413.5,555.5 Z"/></g>
<g><path style="opacity:0.341" fill="#b4c1e6" d="M 889.5,557.5 C 889.771,559.38 889.104,560.713 887.5,561.5C 887.66,559.847 888.326,558.514 889.5,557.5 Z"/></g>
<g><path style="opacity:0.341" fill="#b9c4ea" d="M 418.5,565.5 C 419.931,566.78 420.598,568.447 420.5,570.5C 419.069,569.22 418.402,567.553 418.5,565.5 Z"/></g>
<g><path style="opacity:1" fill="#8b9dd9" d="M 397.5,565.5 C 399.104,566.287 399.771,567.62 399.5,569.5C 398.326,568.486 397.66,567.153 397.5,565.5 Z"/></g>
<g><path style="opacity:0.502" fill="#abb6e0" d="M 865.5,564.5 C 865.598,566.553 864.931,568.22 863.5,569.5C 863.402,567.447 864.069,565.78 865.5,564.5 Z"/></g>
<g><path style="opacity:0.584" fill="#acbae7" d="M 399.5,569.5 C 400.931,570.78 401.598,572.447 401.5,574.5C 400.069,573.22 399.402,571.553 399.5,569.5 Z"/></g>
<g><path style="opacity:0.725" fill="#8a9cd9" d="M 881.5,573.5 C 881.293,576.241 880.293,578.574 878.5,580.5C 878.707,577.759 879.707,575.426 881.5,573.5 Z"/></g>
<g><path style="opacity:0.173" fill="#cad4f1" d="M 405.5,581.5 C 406.338,581.842 406.672,582.508 406.5,583.5C 404.302,583.591 403.969,582.925 405.5,581.5 Z"/></g>
<g><path style="opacity:0.341" fill="#c1ccec" d="M 428.5,584.5 C 429.906,584.973 430.573,585.973 430.5,587.5C 429.094,587.027 428.427,586.027 428.5,584.5 Z"/></g>
<g><path style="opacity:1" fill="#8e9fd8" d="M 875.5,586.5 C 875.068,587.71 874.401,588.71 873.5,589.5C 873.285,587.821 873.952,586.821 875.5,586.5 Z"/></g>
<g><path style="opacity:0.584" fill="#a6b2e0" d="M 851.5,590.5 C 850.66,592.853 849.326,594.853 847.5,596.5C 847.845,593.802 849.178,591.802 851.5,590.5 Z"/></g>
<g><path style="opacity:0.502" fill="#b2bde4" d="M 433.5,592.5 C 434.906,592.973 435.573,593.973 435.5,595.5C 434.094,595.027 433.427,594.027 433.5,592.5 Z"/></g>
<g><path style="opacity:1" fill="#9eade0" d="M 412.5,593.5 C 414.588,595.336 415.921,597.669 416.5,600.5C 414.412,598.664 413.079,596.331 412.5,593.5 Z"/></g>
<g><path style="opacity:0.341" fill="#a5b3e1" d="M 871.5,592.5 C 870.921,595.331 869.588,597.664 867.5,599.5C 868.079,596.669 869.412,594.336 871.5,592.5 Z"/></g>
<g><path style="opacity:0.341" fill="#c2ccec" d="M 437.5,598.5 C 438.906,598.973 439.573,599.973 439.5,601.5C 438.094,601.027 437.427,600.027 437.5,598.5 Z"/></g>
<g><path style="opacity:0.502" fill="#a7b2e4" d="M 845.5,599.5 C 845.573,601.027 844.906,602.027 843.5,602.5C 843.427,600.973 844.094,599.973 845.5,599.5 Z"/></g>
<g><path style="opacity:0.765" fill="#a5b0dd" d="M 439.5,601.5 C 440.906,601.973 441.573,602.973 441.5,604.5C 440.094,604.027 439.427,603.027 439.5,601.5 Z"/></g>
<g><path style="opacity:0.173" fill="#b4c1e8" d="M 420.5,606.5 C 421.974,607.436 422.974,608.77 423.5,610.5C 421.554,609.965 420.554,608.632 420.5,606.5 Z"/></g>
<g><path style="opacity:0.725" fill="#abb6e5" d="M 840.5,606.5 C 840.262,608.404 839.262,609.738 837.5,610.5C 837.738,608.596 838.738,607.262 840.5,606.5 Z"/></g>
<g><path style="opacity:0.765" fill="#a1abd6" d="M 444.5,608.5 C 445.906,608.973 446.573,609.973 446.5,611.5C 445.094,611.027 444.427,610.027 444.5,608.5 Z"/></g>
<g><path style="opacity:1" fill="#9cabde" d="M 423.5,611.5 C 425.446,612.035 426.446,613.368 426.5,615.5C 425.026,614.564 424.026,613.23 423.5,611.5 Z"/></g>
<g><path style="opacity:0.447" fill="#abb7e4" d="M 446.5,611.5 C 448.587,612.585 449.92,614.251 450.5,616.5C 448.413,615.415 447.08,613.749 446.5,611.5 Z"/></g>
<g><path style="opacity:0.765" fill="#8e9ad3" d="M 835.5,613.5 C 835.262,615.404 834.262,616.738 832.5,617.5C 832.738,615.596 833.738,614.262 835.5,613.5 Z"/></g>
<g><path style="opacity:0.067" fill="#ced7f1" d="M 426.5,615.5 C 427.906,615.973 428.573,616.973 428.5,618.5C 427.094,618.027 426.427,617.027 426.5,615.5 Z"/></g>
<g><path style="opacity:0.341" fill="#a5b4e0" d="M 854.5,618.5 C 854.573,620.027 853.906,621.027 852.5,621.5C 852.427,619.973 853.094,618.973 854.5,618.5 Z"/></g>
<g><path style="opacity:0.725" fill="#9ba7dd" d="M 830.5,619.5 C 830.262,621.404 829.262,622.738 827.5,623.5C 827.738,621.596 828.738,620.262 830.5,619.5 Z"/></g>
<g><path style="opacity:0.067" fill="#e6eef9" d="M 432.5,624.5 C 431.833,625.167 431.833,625.167 432.5,624.5 Z"/></g>
<g><path style="opacity:0.725" fill="#b8c3ea" d="M 458.5,625.5 C 459.906,625.973 460.573,626.973 460.5,628.5C 459.094,628.027 458.427,627.027 458.5,625.5 Z"/></g>
<g><path style="opacity:0.173" fill="#b4c1e8" d="M 847.5,627.5 C 847.573,629.027 846.906,630.027 845.5,630.5C 845.427,628.973 846.094,627.973 847.5,627.5 Z"/></g>
<g><path style="opacity:0.067" fill="#b5c1e7" d="M 436.5,628.5 C 437.5,628.833 438.167,629.5 438.5,630.5C 437.167,630.5 436.5,629.833 436.5,628.5 Z"/></g>
<g><path style="opacity:0.894" fill="#8c97d2" d="M 824.5,626.5 C 822.913,629.268 821.08,631.935 819,634.5C 818.329,635.252 817.496,635.586 816.5,635.5C 818.453,631.88 821.119,628.88 824.5,626.5 Z"/></g>
<g><path style="opacity:1" fill="#646ebf" d="M 462.5,630.5 C 464.5,632.5 466.5,634.5 468.5,636.5C 466.628,635.489 464.628,634.655 462.5,634C 461.829,633.014 461.829,631.847 462.5,630.5 Z"/></g>
<g><path style="opacity:0.173" fill="#b6c2e9" d="M 843.5,632.5 C 843.573,634.027 842.906,635.027 841.5,635.5C 841.427,633.973 842.094,632.973 843.5,632.5 Z"/></g>
<g><path style="opacity:0.894" fill="#a2aae0" d="M 470.5,638.5 C 472.167,639.5 473.5,640.833 474.5,642.5C 472.167,642.167 470.833,640.833 470.5,638.5 Z"/></g>
<g><path style="opacity:1" fill="#747fc6" d="M 816.5,635.5 C 815.5,638.5 813.5,640.5 810.5,641.5C 812.167,639.167 814.167,637.167 816.5,635.5 Z"/></g>
<g><path style="opacity:0.173" fill="#b6c2e9" d="M 838.5,638.5 C 838.573,640.027 837.906,641.027 836.5,641.5C 836.427,639.973 837.094,638.973 838.5,638.5 Z"/></g>
<g><path style="opacity:1" fill="#b0bde6" d="M 447.5,642.5 C 449.5,642.5 450.5,643.5 450.5,645.5C 449.167,644.833 448.167,643.833 447.5,642.5 Z"/></g>
<g><path style="opacity:1" fill="#9faae0" d="M 475.5,643.5 C 476.833,644.167 477.833,645.167 478.5,646.5C 476.5,646.5 475.5,645.5 475.5,643.5 Z"/></g>
<g><path style="opacity:0.341" fill="#b5c1e7" d="M 634.5,143.5 C 634.667,312.167 634.5,480.834 634,649.5C 618.069,650.83 602.236,650.83 586.5,649.5C 586.833,649.5 587.167,649.5 587.5,649.5C 602.676,649.829 617.676,649.496 632.5,648.5C 632.5,481.167 632.5,313.833 632.5,146.5C 633.167,145.5 633.833,144.5 634.5,143.5 Z"/></g>
<g><path style="opacity:0.067" fill="#d5ddf2" d="M 483.5,651.5 C 485.027,651.427 486.027,652.094 486.5,653.5C 484.973,653.573 483.973,652.906 483.5,651.5 Z"/></g>
<g><path style="opacity:1" fill="#8892d2" d="M 802.5,649.5 C 801.415,651.587 799.749,652.92 797.5,653.5C 798.585,651.413 800.251,650.08 802.5,649.5 Z"/></g>
<g><path style="opacity:0.173" fill="#bcc7eb" d="M 828.5,649.5 C 825.833,654.167 822.167,657.833 817.5,660.5C 820.833,656.5 824.5,652.833 828.5,649.5 Z"/></g>
<g><path style="opacity:0.067" fill="#cdd7f1" d="M 490.5,657.5 C 491.833,657.5 492.5,658.167 492.5,659.5C 491.5,659.167 490.833,658.5 490.5,657.5 Z"/></g>
<g><path style="opacity:1" fill="#7f8dd2" d="M 794.5,656.5 C 793.089,658.914 791.089,660.581 788.5,661.5C 789.911,659.086 791.911,657.419 794.5,656.5 Z"/></g>
<g><path style="opacity:1" fill="#7481c7" d="M 788.5,661.5 C 787.415,663.587 785.749,664.92 783.5,665.5C 784.585,663.413 786.251,662.08 788.5,661.5 Z"/></g>
<g><path style="opacity:0.173" fill="#acb7e4" d="M 464.5,659.5 C 467.919,661.645 470.919,664.312 473.5,667.5C 469.656,665.842 466.656,663.175 464.5,659.5 Z"/></g>
<g><path style="opacity:0.067" fill="#c3cceb" d="M 501.5,666.5 C 503.632,666.554 504.965,667.554 505.5,669.5C 503.77,668.974 502.436,667.974 501.5,666.5 Z"/></g>
<g><path style="opacity:1" fill="#8e98cf" d="M 783.5,665.5 C 781.45,667.547 779.117,669.214 776.5,670.5C 777.992,667.677 780.326,666.01 783.5,665.5 Z"/></g>
<g><path style="opacity:0.067" fill="#b8c4e9" d="M 807.5,669.5 C 807.5,670.833 806.833,671.5 805.5,671.5C 805.833,670.5 806.5,669.833 807.5,669.5 Z"/></g>
<g><path style="opacity:1" fill="#a7b6e2" d="M 477.5,671.5 C 479.027,671.427 480.027,672.094 480.5,673.5C 478.973,673.573 477.973,672.906 477.5,671.5 Z"/></g>
<g><path style="opacity:1" fill="#5f69b7" d="M 805.5,671.5 C 803.481,673.19 801.481,674.856 799.5,676.5C 799.903,672.398 801.903,670.731 805.5,671.5 Z"/></g>
<g><path style="opacity:0.765" fill="#a8b3dc" d="M 773.5,672.5 C 773.027,673.906 772.027,674.573 770.5,674.5C 770.973,673.094 771.973,672.427 773.5,672.5 Z"/></g>
<g><path style="opacity:0.067" fill="#e6eef9" d="M 803.5,674.5 C 804.833,675.167 804.833,675.167 803.5,674.5 Z"/></g>
<g><path style="opacity:1" fill="#99a6dc" d="M 480.5,673.5 C 482.749,674.08 484.415,675.413 485.5,677.5C 483.251,676.92 481.585,675.587 480.5,673.5 Z"/></g>
<g><path style="opacity:0.067" fill="#bec8e9" d="M 517.5,677.5 C 519.027,677.427 520.027,678.094 520.5,679.5C 518.973,679.573 517.973,678.906 517.5,677.5 Z"/></g>
<g><path style="opacity:0.765" fill="#a1adda" d="M 767.5,676.5 C 767.027,677.906 766.027,678.573 764.5,678.5C 764.973,677.094 765.973,676.427 767.5,676.5 Z"/></g>
<g><path style="opacity:0.067" fill="#b4c1e8" d="M 799.5,676.5 C 799.027,677.906 798.027,678.573 796.5,678.5C 796.973,677.094 797.973,676.427 799.5,676.5 Z"/></g>
<g><path style="opacity:1" fill="#97a5dc" d="M 485.5,677.5 C 487.749,678.08 489.415,679.413 490.5,681.5C 488.251,680.92 486.585,679.587 485.5,677.5 Z"/></g>
<g><path style="opacity:1" fill="#9eaadf" d="M 764.5,678.5 C 764.027,679.906 763.027,680.573 761.5,680.5C 761.973,679.094 762.973,678.427 764.5,678.5 Z"/></g>
<g><path style="opacity:0.173" fill="#bac5ea" d="M 794.5,680.5 C 794.027,681.906 793.027,682.573 791.5,682.5C 791.973,681.094 792.973,680.427 794.5,680.5 Z"/></g>
<g><path style="opacity:0.341" fill="#abb5e0" d="M 522.5,680.5 C 525.54,681.68 528.206,683.347 530.5,685.5C 527.085,684.805 524.418,683.138 522.5,680.5 Z"/></g>
<g><path style="opacity:0.894" fill="#9ba5dc" d="M 756.5,683.5 C 756.027,684.906 755.027,685.573 753.5,685.5C 753.973,684.094 754.973,683.427 756.5,683.5 Z"/></g>
<g><path style="opacity:1" fill="#a3b2e1" d="M 495.5,685.5 C 497.027,685.427 498.027,686.094 498.5,687.5C 496.973,687.573 495.973,686.906 495.5,685.5 Z"/></g>
<g><path style="opacity:0.067" fill="#cdd6f0" d="M 789.5,684.5 C 789.027,685.906 788.027,686.573 786.5,686.5C 786.973,685.094 787.973,684.427 789.5,684.5 Z"/></g>
<g><path style="opacity:0.502" fill="#a7b3e1" d="M 751.5,686.5 C 750.713,688.104 749.38,688.771 747.5,688.5C 748.514,687.326 749.847,686.66 751.5,686.5 Z"/></g>
<g><path style="opacity:1" fill="#96a5dc" d="M 785.5,687.5 C 784.71,688.401 783.71,689.068 782.5,689.5C 782.821,687.952 783.821,687.285 785.5,687.5 Z"/></g>
<g><path style="opacity:0.173" fill="#c0caeb" d="M 531.5,686.5 C 534.754,686.794 537.421,688.127 539.5,690.5C 536.515,689.674 533.849,688.341 531.5,686.5 Z"/></g>
<g><path style="opacity:1" fill="#97a5dd" d="M 747.5,688.5 C 747.027,689.906 746.027,690.573 744.5,690.5C 744.973,689.094 745.973,688.427 747.5,688.5 Z"/></g>
<g><path style="opacity:1" fill="#636cba" d="M 779.5,691.5 C 777.795,693.192 775.795,694.525 773.5,695.5C 773.34,693.801 773.506,692.134 774,690.5C 775.699,691.406 777.533,691.739 779.5,691.5 Z"/></g>
<g><path style="opacity:1" fill="#8a9ad4" d="M 498.5,687.5 C 502.049,688.723 505.049,690.723 507.5,693.5C 503.951,692.277 500.951,690.277 498.5,687.5 Z"/></g>
<g><path style="opacity:0.584" fill="#adbae4" d="M 541.5,691.5 C 543.153,691.66 544.486,692.326 545.5,693.5C 543.62,693.771 542.287,693.104 541.5,691.5 Z"/></g>
<g><path style="opacity:0.765" fill="#8c99cd" d="M 742.5,691.5 C 741.713,693.104 740.38,693.771 738.5,693.5C 739.514,692.326 740.847,691.66 742.5,691.5 Z"/></g>
<g><path style="opacity:1" fill="#8793d0" d="M 549.5,695.5 C 551.75,696.13 553.75,697.13 555.5,698.5C 552.784,698.614 550.784,697.614 549.5,695.5 Z"/></g>
<g><path style="opacity:0.067" fill="#cad3ee" d="M 773.5,695.5 C 773.027,696.906 772.027,697.573 770.5,697.5C 770.973,696.094 771.973,695.427 773.5,695.5 Z"/></g>
<g><path style="opacity:0.502" fill="#abb6e0" d="M 730.5,697.5 C 729.22,698.931 727.553,699.598 725.5,699.5C 726.78,698.069 728.447,697.402 730.5,697.5 Z"/></g>
<g><path style="opacity:1" fill="#98a8dd" d="M 770.5,697.5 C 769.71,698.401 768.71,699.068 767.5,699.5C 767.821,697.952 768.821,697.285 770.5,697.5 Z"/></g>
<g><path style="opacity:1" fill="#90a1db" d="M 513.5,697.5 C 515.027,697.427 516.027,698.094 516.5,699.5C 514.973,699.573 513.973,698.906 513.5,697.5 Z"/></g>
<g><path style="opacity:0.341" fill="#bcc6e8" d="M 555.5,698.5 C 557.553,698.402 559.22,699.069 560.5,700.5C 558.447,700.598 556.78,699.931 555.5,698.5 Z"/></g>
<g><path style="opacity:0.502" fill="#b3bfe8" d="M 765.5,700.5 C 763.664,702.588 761.331,703.921 758.5,704.5C 760.336,702.412 762.669,701.079 765.5,700.5 Z"/></g>
<g><path style="opacity:0.894" fill="#98a3db" d="M 563.5,701.5 C 564.995,701.989 566.329,702.655 567.5,703.5C 565.517,703.843 564.183,703.176 563.5,701.5 Z"/></g>
<g><path style="opacity:0.067" fill="#cad3ef" d="M 567.5,703.5 C 570.346,703.552 572.68,704.552 574.5,706.5C 571.843,706.065 569.509,705.065 567.5,703.5 Z"/></g>
<g><path style="opacity:0.067" fill="#cdd6f1" d="M 525.5,704.5 C 526.71,704.932 527.71,705.599 528.5,706.5C 526.821,706.715 525.821,706.048 525.5,704.5 Z"/></g>
<g><path style="opacity:1" fill="#727ec4" d="M 713.5,704.5 C 711.815,706.818 709.481,707.818 706.5,707.5C 708.604,706.088 710.937,705.088 713.5,704.5 Z"/></g>
<g><path style="opacity:0.447" fill="#b3bfe7" d="M 755.5,706.5 C 753.819,708.008 751.819,709.008 749.5,709.5C 750.911,707.461 752.911,706.461 755.5,706.5 Z"/></g>
<g><path style="opacity:0.447" fill="#b1bde5" d="M 528.5,706.5 C 530.153,706.66 531.486,707.326 532.5,708.5C 530.62,708.771 529.287,708.104 528.5,706.5 Z"/></g>
<g><path style="opacity:0.765" fill="#9aa6dc" d="M 575.5,706.5 C 578.397,707.129 581.064,708.129 583.5,709.5C 580.284,709.655 577.617,708.655 575.5,706.5 Z"/></g>
<g><path style="opacity:0.341" fill="#bfc9e9" d="M 702.5,708.5 C 700.898,710.074 698.898,710.741 696.5,710.5C 698.214,709.262 700.214,708.595 702.5,708.5 Z"/></g>
<g><path style="opacity:0.341" fill="#b1bee7" d="M 537.5,711.5 C 539.553,711.402 541.22,712.069 542.5,713.5C 540.447,713.598 538.78,712.931 537.5,711.5 Z"/></g>
<g><path style="opacity:1" fill="#6f7ec4" d="M 587.5,710.5 C 589.5,711.167 591.5,711.833 593.5,712.5C 593.5,712.833 593.5,713.167 593.5,713.5C 590.784,713.614 588.784,712.614 587.5,710.5 Z"/></g>
<g><path style="opacity:0.447" fill="#b0bbe3" d="M 593.5,713.5 C 593.5,713.167 593.5,712.833 593.5,712.5C 597.397,713.055 601.063,714.055 604.5,715.5C 600.738,715.309 597.071,714.642 593.5,713.5 Z"/></g>
<g><path style="opacity:0.173" fill="#c2ccee" d="M 687.5,713.5 C 684.063,714.945 680.397,715.945 676.5,716.5C 679.763,714.432 683.43,713.432 687.5,713.5 Z"/></g>
<g><path style="opacity:1" fill="#7785cb" d="M 743.5,712.5 C 740.995,714.011 738.328,715.345 735.5,716.5C 737.339,713.865 740.006,712.532 743.5,712.5 Z"/></g>
<g><path style="opacity:0.067" fill="#e6eef9" d="M 541.5,715.5 C 542.833,716.167 542.833,716.167 541.5,715.5 Z"/></g>
<g><path style="opacity:0.173" fill="#c2ccee" d="M 735.5,716.5 C 734.22,717.931 732.553,718.598 730.5,718.5C 731.78,717.069 733.447,716.402 735.5,716.5 Z"/></g>
<g><path style="opacity:0.725" fill="#96a3d9" d="M 608.5,716.5 C 612.476,717.295 616.476,717.962 620.5,718.5C 620.5,718.833 620.5,719.167 620.5,719.5C 616.126,719.498 612.126,718.498 608.5,716.5 Z"/></g>
<g><path style="opacity:1" fill="#5f6cbc" d="M 730.5,718.5 C 728.351,719.736 726.018,720.736 723.5,721.5C 723.167,721.5 722.833,721.5 722.5,721.5C 722.281,720.325 722.614,719.325 723.5,718.5C 725.727,719.053 728.061,719.053 730.5,718.5 Z"/></g>
<g><path style="opacity:1" fill="#95a6db" d="M 550.5,717.5 C 553.346,717.552 555.68,718.552 557.5,720.5C 554.843,720.065 552.509,719.065 550.5,717.5 Z"/></g>
<g><path style="opacity:0.447" fill="#c9d2ef" d="M 620.5,719.5 C 620.5,719.167 620.5,718.833 620.5,718.5C 625.669,719.232 630.669,720.232 635.5,721.5C 630.362,721.566 625.362,720.9 620.5,719.5 Z"/></g>
<g><path style="opacity:0.067" fill="#c6d0ed" d="M 667.5,718.5 C 660.057,720.377 652.39,721.71 644.5,722.5C 651.87,720.253 659.536,718.919 667.5,718.5 Z"/></g>
<g><path style="opacity:0.173" fill="#c2cced" d="M 559.5,721.5 C 561.786,721.595 563.786,722.262 565.5,723.5C 563.102,723.741 561.102,723.074 559.5,721.5 Z"/></g>
<g><path style="opacity:0.447" fill="#b7c2e7" d="M 722.5,721.5 C 722.833,721.5 723.167,721.5 723.5,721.5C 722.22,722.931 720.553,723.598 718.5,723.5C 719.514,722.326 720.847,721.66 722.5,721.5 Z"/></g>
<g><path style="opacity:1" fill="#808ecd" d="M 568.5,724.5 C 571.481,724.182 573.815,725.182 575.5,727.5C 572.937,726.912 570.604,725.912 568.5,724.5 Z"/></g>
<g><path style="opacity:0.173" fill="#c6d0ee" d="M 710.5,726.5 C 708.898,728.074 706.898,728.741 704.5,728.5C 706.214,727.262 708.214,726.595 710.5,726.5 Z"/></g>
<g><path style="opacity:1" fill="#a1b0e2" d="M 575.5,727.5 C 578.152,727.41 580.485,728.076 582.5,729.5C 579.848,729.59 577.515,728.924 575.5,727.5 Z"/></g>
<g><path style="opacity:1" fill="#9daee0" d="M 704.5,728.5 C 702.786,729.738 700.786,730.405 698.5,730.5C 700.102,728.926 702.102,728.259 704.5,728.5 Z"/></g>
<g><path style="opacity:1" fill="#8f99d2" d="M 697.5,730.5 C 694.54,732.396 691.207,733.396 687.5,733.5C 690.446,731.521 693.779,730.521 697.5,730.5 Z"/></g>
<g><path style="opacity:0.502" fill="#abb9e5" d="M 589.5,731.5 C 593.397,732.055 597.063,733.055 600.5,734.5C 596.43,734.568 592.763,733.568 589.5,731.5 Z"/></g>
<g><path style="opacity:1" fill="#8396d5" d="M 600.5,734.5 C 602.527,734.338 604.527,734.505 606.5,735C 607.056,735.383 607.389,735.883 607.5,736.5C 604.99,736.073 602.657,735.407 600.5,734.5 Z"/></g>
<g><path style="opacity:1" fill="#96a8dc" d="M 687.5,733.5 C 685.095,734.768 682.428,735.435 679.5,735.5C 681.838,733.96 684.505,733.294 687.5,733.5 Z"/></g>
<g><path style="opacity:0.173" fill="#c7d1ef" d="M 610.5,736.5 C 613.01,736.927 615.343,737.593 617.5,738.5C 615.473,738.662 613.473,738.495 611.5,738C 610.944,737.617 610.611,737.117 610.5,736.5 Z"/></g>
<g><path style="opacity:0.584" fill="#9bacdf" d="M 617.5,738.5 C 622.731,738.444 627.731,739.111 632.5,740.5C 627.269,740.556 622.269,739.889 617.5,738.5 Z"/></g>
<g><path style="opacity:0.584" fill="#a7b5e4" d="M 673.5,736.5 C 670.362,737.784 667.195,739.117 664,740.5C 659.928,739.949 655.761,739.949 651.5,740.5C 658.648,738.849 665.982,737.516 673.5,736.5 Z"/></g>
<g><path style="opacity:1" fill="#788cd2" d="M 632.5,740.5 C 638.5,740.5 644.5,740.5 650.5,740.5C 650.217,741.289 649.717,741.956 649,742.5C 643.4,741.854 637.9,741.187 632.5,740.5 Z"/></g>
</svg>
